<svg width="608" height="549" viewBox="0 0 608 549" fill="none" xmlns="http://www.w3.org/2000/svg">
<path fill-rule="evenodd" clip-rule="evenodd" d="M362.802 1.37102C445.726 -1.72875 544.747 -5.5512 591.196 63.2129C636.165 129.786 572.571 210.884 557.646 289.824C541.295 376.305 578.08 490.176 502.078 534.562C424.903 579.632 338.748 501.12 256.763 465.542C167.314 426.726 42.2137 418.483 17.3254 324.204C-7.79954 229.029 82.938 146.731 154.86 79.5235C211.781 26.3331 284.951 4.28114 362.802 1.37102Z" fill="white"/>
<path d="M111.924 128.102H30.9961V245.049H111.924V128.102Z" fill="#E0E0E0"/>
<path d="M107.87 128.102H26.9414V245.049H107.87V128.102Z" fill="#F5F5F5"/>
<path d="M97.8202 140.766H36.9961V232.376H97.8202V140.766Z" fill="white"/>
<path d="M97.8214 232.385C97.8214 232.385 97.8214 232.227 97.8214 231.937C97.8214 231.646 97.8214 231.198 97.8214 230.635C97.8214 229.483 97.8214 227.795 97.8214 225.614C97.8214 221.216 97.8214 214.823 97.7597 206.741C97.7597 190.586 97.7068 167.703 97.6627 140.783L97.8656 140.986H37.0503L37.2708 140.766C37.2708 175.328 37.2708 207.189 37.2708 232.385L37.0944 232.209L81.3694 232.297L93.596 232.341H96.807H97.9185H96.8423H93.6665H81.4753L37.0944 232.429H36.918V232.253C36.918 207.058 36.918 175.196 36.918 140.634V140.414H37.1473H97.9626H98.1655V140.775C98.1655 167.773 98.0861 190.691 98.0684 206.882C98.0684 214.946 98.0243 221.322 98.0067 225.702C98.0067 227.874 98.0067 229.545 98.0067 230.688C98.0067 231.242 98.0067 231.673 98.0067 231.963C98.0067 232.253 97.8214 232.385 97.8214 232.385Z" fill="#E0E0E0"/>
<path d="M108.109 128.101C107.69 128.849 107.206 129.558 106.662 130.221C105.727 131.47 104.386 133.176 102.869 135.022C101.351 136.869 99.9224 138.496 98.8638 139.657C98.3318 140.313 97.7413 140.919 97.0995 141.469C97.5564 140.755 98.0728 140.082 98.6433 139.455L102.542 134.741L106.424 130.001C106.93 129.321 107.494 128.686 108.109 128.101Z" fill="#E0E0E0"/>
<path d="M98.127 232.086C101.147 236.866 104.698 241.291 108.713 245.278L98.127 232.086Z" fill="white"/>
<path d="M108.742 245.313C108.063 244.824 107.442 244.261 106.89 243.633C105.479 242.204 104.143 240.704 102.885 239.139C101.42 237.301 100.194 235.551 99.3562 234.259C98.8742 233.577 98.4605 232.849 98.1212 232.086C98.6668 232.714 99.1651 233.382 99.612 234.083C100.494 235.332 101.764 237.038 103.22 238.858C104.676 240.678 106.087 242.279 107.11 243.422C107.699 244.013 108.244 244.645 108.742 245.313Z" fill="#E0E0E0"/>
<path d="M78.8707 159.365H58.502V217.012H78.8707V159.365Z" fill="#E0E0E0"/>
<path d="M221.038 111.059V162.277H147.255L144.6 111.419L221.038 111.059Z" fill="#E0E0E0"/>
<path d="M144.592 111.419V162.162H218.375V111.419H144.592Z" fill="white"/>
<path d="M218.728 162.514H144.248V111.067H218.728V162.514ZM144.954 161.819H218.031V111.753H144.954V161.819Z" fill="#E0E0E0"/>
<path d="M210.392 117.725H152.594V155.857H210.392V117.725Z" fill="white"/>
<path d="M210.39 117.724H209.279H206.103H194.194L152.592 117.909L152.759 117.742C152.759 129.394 152.759 142.304 152.759 155.874L152.583 155.698H210.381L210.231 155.839C210.231 144.239 210.293 134.732 210.311 128.093C210.311 124.786 210.311 122.201 210.311 120.424C210.311 119.545 210.311 118.876 210.311 118.41C210.311 117.944 210.311 117.707 210.311 117.707C210.311 117.707 210.311 117.926 210.311 118.375C210.311 118.824 210.311 119.501 210.311 120.363C210.311 122.121 210.311 124.707 210.355 128.005C210.355 134.653 210.399 144.204 210.425 155.839V155.988H210.284H152.486H152.301V155.804C152.301 142.234 152.301 129.324 152.301 117.671V117.557H152.468L194.185 117.636L206.059 117.689H209.199H210.267L210.39 117.724Z" fill="#E0E0E0"/>
<path d="M144.6 111.278C145.056 111.497 145.482 111.772 145.87 112.096C146.62 112.641 147.634 113.415 148.763 114.295C149.892 115.174 150.845 116.054 151.533 116.643C151.927 116.961 152.282 117.324 152.592 117.725C151.186 116.745 149.832 115.694 148.534 114.576C147.154 113.561 145.84 112.46 144.6 111.278Z" fill="#E0E0E0"/>
<path d="M218.385 111.418C217.172 112.609 215.874 113.711 214.503 114.716C213.206 115.814 211.832 116.819 210.393 117.724C211.606 116.534 212.903 115.432 214.274 114.426C215.57 113.326 216.944 112.321 218.385 111.418Z" fill="#E0E0E0"/>
<path d="M218.324 162.17L210.094 155.522L218.324 162.17Z" fill="white"/>
<path d="M210.094 155.522C211.574 156.489 212.988 157.553 214.328 158.706C215.737 159.77 217.072 160.927 218.324 162.17C216.843 161.209 215.431 160.145 214.099 158.987C212.684 157.927 211.346 156.769 210.094 155.522Z" fill="#E0E0E0"/>
<path d="M144.6 162.162C145.798 160.986 147.081 159.899 148.437 158.908C149.72 157.82 151.079 156.824 152.504 155.927C151.309 157.109 150.026 158.2 148.666 159.189C147.384 160.277 146.025 161.27 144.6 162.162Z" fill="#E0E0E0"/>
<path d="M164.324 129.606V142.375H200.695V129.606H164.324Z" fill="#E0E0E0"/>
<path d="M521.641 340.555C521.641 340.555 515.016 337.477 509.82 352.955C504.624 368.433 503.081 377.148 503.081 377.148C503.081 377.148 501.59 380.455 499.217 378.793C496.844 377.131 493.165 371.968 489.787 373.516C486.408 375.064 485.685 379.355 487.281 385.239C488.878 391.122 491.904 404.129 492.168 405.308C492.433 406.486 492.019 408.289 490.228 407.418C488.437 406.548 477.481 397.533 473.467 402.959C469.453 408.386 476.634 424.066 477.384 425.772C478.133 427.478 477.895 428.322 477.101 428.894C476.307 429.466 472.929 426.089 469.709 423.617C466.489 421.146 462.334 418.921 460.296 422.245C458.259 425.57 459.317 437.961 474.023 456.148L481.389 464.124L492.089 461.917C514.699 455.805 522.85 446.395 523.158 442.508C523.467 438.62 518.748 438.022 514.734 438.11C510.72 438.198 505.965 438.946 505.665 438.014C505.365 437.081 505.665 436.255 507.271 435.375C508.876 434.496 523.899 425.921 523.882 419.194C523.864 412.466 509.688 413.363 507.721 413.038C505.753 412.712 506.495 410.971 507.386 410.188C508.276 409.406 518.403 400.629 523.158 396.803C527.913 392.978 529.942 389.188 528.037 385.854C526.131 382.521 520.185 384.658 517.292 384.614C514.399 384.571 515.131 381.018 515.131 381.018C515.131 381.018 519.012 373.103 523.952 357.493C528.892 341.883 521.5 340.537 521.5 340.537" fill="#EBEBEB"/>
<path d="M479.994 466.332C483.646 454.9 490.474 434.717 496.252 417.348C502.03 399.979 507.244 384.263 510.958 372.866C512.801 367.167 514.292 362.559 515.368 359.358C515.889 357.775 516.25 356.535 516.568 355.682C516.703 355.277 516.809 354.961 516.886 354.732C516.956 354.512 517 354.407 517 354.407C517 354.407 517 354.521 516.912 354.741C516.824 354.961 516.753 355.286 516.63 355.7C516.365 356.579 515.986 357.801 515.492 359.393C514.504 362.603 513.048 367.229 511.213 372.936C507.561 384.369 502.392 400.093 496.614 417.453C490.836 434.813 483.964 455.005 480.25 466.403" fill="#E0E0E0"/>
<path d="M494.646 380.93C494.793 381.147 494.92 381.377 495.026 381.616C495.255 382.065 495.564 382.733 495.908 383.551C496.658 385.195 497.672 387.491 498.651 390.041C499.631 392.591 500.557 394.834 501.298 396.575C501.607 397.358 501.88 398.026 502.092 398.554C502.212 398.788 502.301 399.036 502.356 399.293C502.21 399.076 502.083 398.846 501.977 398.607C501.748 398.158 501.439 397.499 501.095 396.672C500.363 395.019 499.419 392.715 498.396 390.164C497.372 387.614 496.455 385.38 495.749 383.648L494.938 381.669C494.809 381.436 494.712 381.188 494.646 380.93Z" fill="#E0E0E0"/>
<path d="M503.389 399.328C503.345 399.24 508.003 397.041 513.789 394.403C519.576 391.765 524.287 389.707 524.375 389.795C524.463 389.883 519.753 392.081 513.966 394.711C508.179 397.34 503.389 399.425 503.389 399.328Z" fill="#E0E0E0"/>
<path d="M493.277 425.605C493.535 425.522 493.801 425.469 494.071 425.447L496.233 425.13C498.05 424.866 500.573 424.488 503.334 423.96C506.095 423.433 508.574 422.896 510.391 422.474L512.517 421.99C512.775 421.91 513.041 421.863 513.311 421.85C513.067 421.96 512.813 422.049 512.552 422.113C512.058 422.263 511.344 422.474 510.453 422.711C508.688 423.186 506.183 423.776 503.396 424.294C500.608 424.813 498.103 425.174 496.259 425.367C495.377 425.473 494.601 425.543 494.08 425.578C493.814 425.61 493.545 425.619 493.277 425.605Z" fill="#E0E0E0"/>
<path d="M481.725 410.681C481.915 410.84 482.087 411.02 482.236 411.218L483.533 412.765C484.618 414.076 486.091 415.905 487.706 417.936C489.32 419.968 490.775 421.815 491.808 423.169L493.016 424.778C493.174 424.969 493.313 425.176 493.431 425.394C493.237 425.239 493.065 425.058 492.919 424.858L491.622 423.319C490.537 421.999 489.064 420.179 487.441 418.148C485.818 416.116 484.38 414.26 483.348 412.915L482.139 411.306C481.977 411.114 481.838 410.905 481.725 410.681Z" fill="#E0E0E0"/>
<path d="M469.867 432.746C470.106 432.955 470.321 433.187 470.511 433.441C470.952 433.951 471.508 434.619 472.178 435.411C473.581 437.082 475.486 439.412 477.586 441.998C479.685 444.583 481.564 446.931 482.879 448.646L484.467 450.678C484.669 450.922 484.849 451.184 485.005 451.46C484.772 451.246 484.557 451.014 484.361 450.766L482.694 448.796C481.3 447.116 479.386 444.794 477.286 442.209C475.187 439.623 473.308 437.275 471.993 435.56C471.358 434.742 470.82 434.056 470.414 433.52C470.207 433.281 470.024 433.021 469.867 432.746Z" fill="#E0E0E0"/>
<path d="M484.865 450.907C485.189 450.809 485.519 450.735 485.853 450.687L488.579 450.194C490.882 449.772 494.057 449.174 497.542 448.435C501.026 447.697 504.167 446.923 506.434 446.351L509.124 445.683C509.451 445.586 509.784 445.515 510.121 445.472C509.812 445.612 509.49 445.724 509.16 445.806C508.533 445.999 507.625 446.272 506.513 446.58C504.255 447.213 501.123 448.013 497.63 448.761C494.137 449.508 490.952 450.08 488.641 450.44C487.485 450.625 486.541 450.757 485.898 450.836C485.557 450.892 485.211 450.916 484.865 450.907Z" fill="#E0E0E0"/>
<path d="M541.321 466.015C541.321 466.138 420.123 466.244 270.661 466.244C121.198 466.244 0 466.165 0 466.015C0 465.866 121.172 465.787 270.696 465.787C420.22 465.787 541.321 465.892 541.321 466.015Z" fill="#263238"/>
<path d="M375.792 159.967L367.398 167.124L378.603 180.184L386.996 173.027L375.792 159.967Z" fill="#263238"/>
<path d="M383.046 158.952L365.774 173.744L353.662 159.673C358.426 153.007 364.107 147.977 370.908 144.881L383.046 158.952Z" fill="#455A64"/>
<path d="M368.684 171.264C368.587 171.352 365.667 168.151 362.156 164.132C358.646 160.113 355.876 156.788 355.981 156.7C356.087 156.613 358.998 159.814 362.509 163.833C366.02 167.852 368.781 171.185 368.684 171.264Z" fill="#263238"/>
<path d="M371.948 168.45C371.25 167.773 370.601 167.047 370.007 166.278C368.843 164.915 367.264 163.024 365.526 160.913L361.115 155.496L359.792 153.851C359.474 153.447 359.307 153.262 359.307 153.236C359.483 153.078 362.421 156.411 365.896 160.623C367.661 162.734 369.178 164.66 370.307 166.076C370.923 166.817 371.472 167.612 371.948 168.45Z" fill="#263238"/>
<path d="M376.359 164.695C375.651 164.02 374.993 163.294 374.392 162.523C373.219 161.142 371.631 159.216 369.884 157.079L365.473 151.574L364.15 149.894C363.979 149.694 363.825 149.479 363.691 149.252C364.449 149.876 365.13 150.588 365.72 151.371C366.911 152.735 368.517 154.652 370.255 156.789C371.992 158.926 373.554 160.887 374.665 162.32C375.296 163.063 375.862 163.857 376.359 164.695Z" fill="#263238"/>
<path d="M380.339 161.177C380.242 161.256 377.34 158.028 373.855 153.965C370.371 149.902 367.636 146.534 367.733 146.446C367.83 146.358 370.723 149.594 374.208 153.666C377.692 157.738 380.436 161.097 380.339 161.177Z" fill="#263238"/>
<path d="M523.603 168.857L515.973 160.896L503.511 172.769L511.141 180.729L523.603 168.857Z" fill="#263238"/>
<path d="M523.968 176.69L508.248 160.288L521.683 147.493C528.599 151.89 533.945 157.281 537.394 163.894L523.968 176.69Z" fill="#455A64"/>
<path d="M510.877 163.041C510.789 162.944 513.832 159.866 517.678 156.164C521.524 152.462 524.735 149.533 524.797 149.621C524.859 149.709 521.842 152.787 517.996 156.498C514.15 160.209 510.965 163.129 510.877 163.041Z" fill="#263238"/>
<path d="M513.877 166.163C514.504 165.425 515.188 164.737 515.924 164.105C517.22 162.874 519.038 161.195 521.058 159.348L526.253 154.66L527.833 153.253C528.212 152.919 528.397 152.752 528.424 152.743C528.591 152.91 525.407 156.015 521.366 159.691C519.346 161.529 517.494 163.208 516.135 164.343C515.432 165.008 514.677 165.617 513.877 166.163Z" fill="#263238"/>
<path d="M517.865 170.323C518.5 169.578 519.193 168.884 519.938 168.248C521.253 167.008 523.096 165.319 525.152 163.472L530.445 158.776L532.059 157.369C532.256 157.194 532.462 157.03 532.677 156.876C532.093 157.666 531.418 158.383 530.665 159.013C529.36 160.271 527.516 161.968 525.469 163.815C523.423 165.662 521.535 167.333 520.177 168.494C519.454 169.162 518.682 169.773 517.865 170.323Z" fill="#263238"/>
<path d="M521.597 174.113C521.509 174.017 524.597 170.965 528.487 167.28C532.377 163.595 535.606 160.693 535.694 160.79C535.782 160.887 532.695 163.938 528.804 167.614C524.914 171.29 521.686 174.193 521.597 174.113Z" fill="#263238"/>
<path d="M453.175 130.854H440.102V151.196H453.175V130.854Z" fill="#263238"/>
<path d="M460.161 136.94H433.256V115.016C442.686 112.694 451.684 112.553 460.188 115.016L460.161 136.94Z" fill="#FF58B3"/>
<path d="M460.506 115.103C460.191 115.3 459.857 115.465 459.509 115.596C458.588 116 457.642 116.347 456.678 116.634C455.232 117.077 453.759 117.424 452.267 117.671C450.455 117.958 448.624 118.111 446.789 118.129C444.955 118.131 443.124 117.996 441.311 117.724C439.819 117.494 438.346 117.162 436.9 116.73C435.934 116.449 434.986 116.111 434.059 115.719C433.709 115.598 433.374 115.436 433.062 115.235C433.062 115.156 434.544 115.763 436.988 116.414C438.422 116.792 439.877 117.085 441.346 117.293C443.141 117.535 444.951 117.659 446.762 117.663C448.575 117.642 450.385 117.501 452.179 117.24C453.641 117.03 455.09 116.736 456.519 116.361C459.024 115.649 460.471 115.024 460.506 115.103Z" fill="#263238"/>
<path d="M442.151 136.878C442.028 136.878 441.922 132.665 441.922 127.477C441.922 122.288 442.028 118.076 442.151 118.076C442.275 118.076 442.381 122.279 442.381 127.477C442.381 132.674 442.284 136.878 442.151 136.878Z" fill="#263238"/>
<path d="M447.276 137.002C447.153 137.002 447.047 132.771 447.047 127.556C447.047 122.341 447.153 118.12 447.276 118.12C447.4 118.12 447.506 122.341 447.506 127.556C447.506 132.771 447.409 137.002 447.276 137.002Z" fill="#263238"/>
<path d="M452.399 136.922C452.276 136.922 452.17 132.692 452.17 127.477C452.17 122.262 452.276 118.032 452.399 118.032C452.523 118.032 452.629 122.262 452.629 127.477C452.629 132.692 452.532 136.922 452.399 136.922Z" fill="#263238"/>
<path d="M456.636 136.922C456.503 136.922 456.406 132.349 456.406 126.712C456.406 121.075 456.503 116.501 456.636 116.501C456.768 116.501 456.865 121.075 456.865 126.712C456.865 132.349 456.794 136.922 456.636 136.922Z" fill="#263238"/>
<path d="M437.307 136.791C437.184 136.791 437.078 132.218 437.078 126.58C437.078 120.943 437.184 116.37 437.307 116.37C437.431 116.37 437.537 120.943 437.537 126.58C437.537 132.218 437.44 136.791 437.307 136.791Z" fill="#263238"/>
<path d="M512.321 306.786C549.469 269.753 549.469 209.711 512.321 172.677C475.174 135.644 414.946 135.644 377.799 172.677C340.651 209.711 340.651 269.753 377.799 306.786C414.946 343.82 475.174 343.82 512.321 306.786Z" fill="#FF58B3"/>
<path d="M445.061 318.622C489.182 318.622 524.948 282.965 524.948 238.98C524.948 194.996 489.182 159.339 445.061 159.339C400.941 159.339 365.174 194.996 365.174 238.98C365.174 282.965 400.941 318.622 445.061 318.622Z" fill="#FAFAFA"/>
<path d="M524.945 238.98C524.945 238.98 524.945 238.549 524.884 237.696C524.822 236.843 524.884 235.568 524.716 233.906C524.401 229.056 523.639 224.246 522.44 219.536C521.576 216.136 520.482 212.798 519.167 209.545C517.622 205.667 515.763 201.92 513.61 198.341C508.341 189.599 501.456 181.932 493.32 175.749C483.446 168.259 471.951 163.176 459.755 160.904C449.417 159.008 438.809 159.13 428.518 161.265C424.904 162.047 421.345 163.06 417.861 164.299C403.04 169.681 390.148 179.317 380.811 191.992C378.375 195.293 376.204 198.78 374.319 202.422C373.339 204.242 372.501 206.133 371.672 208.033C370.843 209.932 370.102 211.902 369.476 213.907C368.122 217.92 367.107 222.038 366.441 226.22C365.772 230.447 365.421 234.718 365.391 238.998C365.422 243.28 365.77 247.554 366.432 251.785C367.108 255.964 368.123 260.081 369.467 264.097C370.102 266.093 370.896 268.028 371.663 269.963C372.431 271.897 373.357 273.762 374.31 275.582C376.195 279.226 378.369 282.714 380.811 286.012C390.146 298.691 403.038 308.331 417.861 313.714C421.345 314.953 424.904 315.966 428.518 316.748C432.041 317.482 435.61 317.979 439.201 318.235C446.072 318.752 452.982 318.374 459.755 317.109C471.951 314.837 483.446 309.754 493.32 302.264C501.459 296.083 508.344 288.416 513.61 279.671C515.762 276.092 517.62 272.345 519.167 268.467C522.301 260.692 524.174 252.469 524.716 244.107C524.866 242.445 524.84 241.17 524.884 240.317C524.928 239.464 524.945 239.024 524.945 239.024C524.945 239.024 524.945 239.464 524.945 240.317C524.945 241.17 524.945 242.445 524.822 244.107C524.339 252.493 522.501 260.745 519.379 268.547C517.843 272.443 515.99 276.208 513.839 279.803C508.583 288.59 501.698 296.299 493.55 302.519C483.64 310.054 472.1 315.174 459.852 317.47C453.048 318.751 446.106 319.141 439.201 318.63C435.593 318.375 432.006 317.879 428.465 317.144C424.829 316.365 421.249 315.348 417.747 314.101C402.837 308.698 389.868 299.013 380.476 286.267C378.025 282.951 375.842 279.446 373.948 275.784C372.96 273.955 372.113 272.038 371.249 270.13C370.384 268.221 369.679 266.243 369.043 264.229C367.69 260.197 366.669 256.061 365.991 251.864C364.591 243.349 364.591 234.664 365.991 226.149C366.673 221.97 367.694 217.852 369.043 213.837C369.687 211.823 370.481 209.88 371.258 207.936C372.034 205.993 372.96 204.119 373.948 202.29C375.848 198.63 378.034 195.125 380.485 191.807C389.873 179.063 402.84 169.38 417.747 163.982C421.246 162.736 424.824 161.72 428.456 160.939C432 160.205 435.59 159.709 439.201 159.453C446.103 158.942 453.042 159.332 459.843 160.614C472.095 162.899 483.637 168.02 493.541 175.564C501.688 181.788 508.574 189.5 513.83 198.289C517.782 204.923 520.753 212.091 522.652 219.571C523.829 224.298 524.564 229.123 524.848 233.985C524.981 235.647 524.937 236.922 524.972 237.775C525.007 238.628 524.945 238.98 524.945 238.98Z" fill="#263238"/>
<path d="M513.226 236.096C510.694 236.201 508.63 236.096 508.621 235.876C508.612 235.656 510.65 235.357 513.182 235.216C515.714 235.076 517.778 235.164 517.795 235.428C517.813 235.691 515.74 235.99 513.226 236.096Z" fill="#263238"/>
<path d="M511.52 254.432C509.05 253.852 507.109 253.21 507.109 252.99C507.109 252.77 509.209 253.034 511.688 253.57C514.167 254.107 516.098 254.758 516.098 255.013C516.098 255.268 513.972 255.004 511.52 254.432Z" fill="#263238"/>
<path d="M504.932 271.625C502.7 270.411 500.989 269.259 501.095 269.065C501.2 268.872 503.106 269.672 505.346 270.824C507.587 271.976 509.307 273.164 509.184 273.392C509.06 273.621 507.155 272.847 504.932 271.625Z" fill="#263238"/>
<path d="M493.949 286.435C492.131 284.676 490.782 283.11 490.94 282.917C491.099 282.723 492.705 284.034 494.557 285.775C496.41 287.516 497.742 289.073 497.565 289.293C497.389 289.513 495.757 288.202 493.949 286.435Z" fill="#263238"/>
<path d="M479.393 297.78C478.123 295.59 477.241 293.725 477.435 293.611C477.629 293.497 478.846 295.168 480.152 297.331C481.458 299.494 482.34 301.359 482.119 301.5C481.899 301.64 480.672 299.952 479.393 297.78Z" fill="#263238"/>
<path d="M462.322 304.806C461.686 302.352 461.342 300.321 461.563 300.268C461.783 300.215 462.498 302.141 463.177 304.577C463.856 307.013 464.192 309.045 463.936 309.115C463.68 309.186 462.957 307.251 462.322 304.806Z" fill="#263238"/>
<path d="M443.985 306.987C443.985 304.454 444.241 302.405 444.461 302.405C444.682 302.405 444.867 304.463 444.867 306.987C444.867 309.511 444.646 311.569 444.391 311.569C444.135 311.569 443.941 309.529 443.985 306.987Z" fill="#263238"/>
<path d="M425.759 304.234C426.483 301.807 427.241 299.899 427.462 299.96C427.683 300.022 427.294 302.045 426.58 304.481C425.865 306.917 425.133 308.878 424.877 308.755C424.621 308.632 424.992 306.662 425.759 304.234Z" fill="#263238"/>
<path d="M408.883 296.663C410.233 294.526 411.477 292.881 411.671 292.995C411.865 293.11 410.947 294.965 409.633 297.129C408.319 299.292 407.066 300.928 406.845 300.796C406.625 300.664 407.534 298.808 408.883 296.663Z" fill="#263238"/>
<path d="M394.69 284.878C396.569 283.172 398.219 281.923 398.36 282.09C398.501 282.257 397.142 283.787 395.29 285.52C393.437 287.252 391.805 288.501 391.62 288.317C391.435 288.132 392.82 286.584 394.69 284.878Z" fill="#263238"/>
<path d="M384.175 269.734C386.442 268.6 388.365 267.834 388.462 268.028C388.559 268.221 386.83 269.338 384.581 270.517C382.331 271.695 380.417 272.46 380.293 272.223C380.17 271.985 381.916 270.877 384.175 269.734Z" fill="#263238"/>
<path d="M378.123 252.339C380.619 251.846 382.675 251.627 382.719 251.846C382.763 252.066 380.787 252.673 378.308 253.201C375.829 253.728 373.765 253.948 373.712 253.693C373.659 253.438 375.653 252.831 378.123 252.339Z" fill="#263238"/>
<path d="M377 233.994C379.532 234.178 381.57 234.513 381.561 234.732C381.552 234.952 379.479 235.014 376.948 234.864C374.416 234.715 372.369 234.389 372.387 234.126C372.404 233.862 374.469 233.765 377 233.994Z" fill="#263238"/>
<path d="M380.841 215.94C383.232 216.819 385.102 217.698 385.031 217.883C384.961 218.068 382.95 217.593 380.55 216.766C378.151 215.94 376.28 215.078 376.36 214.831C376.439 214.585 378.459 215.078 380.841 215.94Z" fill="#263238"/>
<path d="M389.404 199.626C391.469 201.095 393.039 202.431 392.933 202.616C392.827 202.801 391.01 201.781 388.919 200.347C386.828 198.914 385.258 197.577 385.391 197.357C385.523 197.137 387.331 198.157 389.404 199.626Z" fill="#263238"/>
<path d="M402.031 186.188C403.628 188.149 404.783 189.855 404.616 190.005C404.448 190.154 402.975 188.686 401.352 186.742C399.728 184.799 398.564 183.101 398.767 182.934C398.97 182.767 400.434 184.227 402.031 186.188Z" fill="#263238"/>
<path d="M417.82 176.602C418.825 178.924 419.487 180.876 419.275 180.999C419.063 181.123 418.058 179.293 417.017 176.989C415.976 174.685 415.314 172.733 415.552 172.592C415.791 172.451 416.787 174.289 417.82 176.602Z" fill="#263238"/>
<path d="M435.584 171.616C435.928 174.122 436.034 176.18 435.805 176.215C435.576 176.251 435.09 174.245 434.711 171.748C434.332 169.25 434.226 167.184 434.482 167.148C434.738 167.113 435.24 169.11 435.584 171.616Z" fill="#263238"/>
<path d="M454.059 171.554C453.724 174.061 453.274 176.075 453.053 176.048C452.833 176.022 452.886 173.955 453.185 171.449C453.485 168.943 453.935 166.92 454.191 166.955C454.447 166.99 454.394 169.039 454.059 171.554Z" fill="#263238"/>
<path d="M471.87 176.418C470.873 178.748 469.894 180.56 469.682 180.472C469.47 180.384 470.096 178.423 471.058 176.075C472.02 173.727 473.008 171.924 473.246 172.029C473.484 172.135 472.875 174.096 471.87 176.418Z" fill="#263238"/>
<path d="M487.716 185.889C486.128 187.868 484.699 189.354 484.522 189.213C484.346 189.073 485.466 187.34 487.028 185.344C488.589 183.347 490.009 181.826 490.221 182.028C490.433 182.231 489.277 183.919 487.716 185.889Z" fill="#263238"/>
<path d="M500.44 199.239C498.376 200.717 496.603 201.772 496.471 201.587C496.338 201.402 497.882 200.039 499.92 198.527C501.958 197.014 503.731 195.968 503.89 196.179C504.048 196.39 502.505 197.762 500.44 199.239Z" fill="#263238"/>
<path d="M509.113 215.525C506.731 216.405 504.702 216.924 504.65 216.721C504.597 216.519 506.414 215.605 508.804 214.699C511.195 213.793 513.162 213.256 513.259 213.503C513.356 213.749 511.495 214.646 509.113 215.525Z" fill="#263238"/>
<path d="M513.092 233.484C510.56 233.686 508.496 233.669 508.479 233.484C508.461 233.299 510.49 232.895 513.013 232.604C515.536 232.314 517.609 232.385 517.626 232.648C517.644 232.912 515.598 233.282 513.092 233.484Z" fill="#263238"/>
<path d="M414.035 152.822L413.762 152.945L412.95 153.271C412.244 153.57 411.186 153.93 409.836 154.52C406.033 156.104 402.34 157.941 398.783 160.016C396.524 161.318 394.134 162.874 391.62 164.624C389.106 166.374 386.539 168.415 383.971 170.71C372.701 180.614 364.092 193.168 358.927 207.233C357.719 210.452 356.81 213.6 356.025 216.546C355.24 219.492 354.711 222.306 354.314 224.874C353.669 228.932 353.295 233.027 353.193 237.134C353.123 238.593 353.193 239.719 353.193 240.484C353.193 240.854 353.193 241.135 353.193 241.364C353.201 241.463 353.201 241.563 353.193 241.663C353.182 241.566 353.182 241.469 353.193 241.372C353.193 241.153 353.193 240.862 353.193 240.493C353.193 239.728 353.096 238.602 353.14 237.142C353.172 233.02 353.499 228.906 354.12 224.83C354.49 222.245 355.064 219.439 355.778 216.458C356.575 213.289 357.535 210.163 358.654 207.092C363.793 192.933 372.453 180.306 383.821 170.393C386.406 168.098 389.035 166.119 391.523 164.316C394.01 162.514 396.463 161.019 398.747 159.735C402.329 157.681 406.052 155.882 409.889 154.352C411.239 153.79 412.324 153.473 413.047 153.183L413.876 152.901C413.927 152.871 413.98 152.845 414.035 152.822Z" fill="white"/>
<path d="M440.586 147.687C439.678 147.875 438.758 147.995 437.833 148.047C436.122 148.223 433.775 148.478 431.182 148.812C428.588 149.147 426.251 149.498 424.557 149.762C423.65 149.948 422.73 150.066 421.805 150.114C422.682 149.809 423.586 149.585 424.504 149.446C426.189 149.103 428.527 148.698 431.12 148.364C433.714 148.03 436.087 147.819 437.807 147.722C438.73 147.624 439.66 147.612 440.586 147.687Z" fill="white"/>
<g opacity="0.4">
<path d="M381.209 286.857C381.209 286.857 422.608 351.988 486.828 318.631C553.872 283.805 516.822 203.979 516.822 203.979C516.822 203.979 548.367 267.597 483.018 309.071C466.742 319.405 449.02 319.413 435.505 318.059C400.969 314.612 381.209 286.857 381.209 286.857Z" fill="black"/>
</g>
<path d="M467.325 196.653C467.722 208.334 467.369 220.028 466.266 231.664C465.86 235.876 465.384 240.132 463.752 244.046C462.12 247.959 459.341 251.548 455.425 253.201C451.508 254.854 446.497 254.168 443.771 250.932L467.325 196.653Z" fill="#E0E0E0"/>
<path d="M443.322 232.701L472.354 183.963L454.834 238.989L445.88 241.654L443.322 232.701Z" fill="#FF58B3"/>
<g opacity="0.4">
<path d="M472.357 183.963L450.824 233.765L454.838 238.989L472.357 183.963Z" fill="black"/>
</g>
<path d="M445.881 250.967C451.04 250.967 455.223 246.798 455.223 241.654C455.223 236.51 451.04 232.341 445.881 232.341C440.722 232.341 436.539 236.51 436.539 241.654C436.539 246.798 440.722 250.967 445.881 250.967Z" fill="#FAFAFA"/>
<path d="M455.222 241.654C455.138 240.897 455.011 240.145 454.843 239.403C454.302 237.397 453.103 235.629 451.437 234.381C450.214 233.463 448.779 232.866 447.265 232.643C445.75 232.42 444.203 232.579 442.766 233.106C441.939 233.398 441.162 233.816 440.464 234.346C439.72 234.884 439.068 235.537 438.532 236.281C437.385 237.839 436.767 239.721 436.767 241.654C436.767 243.587 437.385 245.469 438.532 247.027C439.603 248.476 441.074 249.582 442.766 250.211C443.973 250.652 445.26 250.837 446.543 250.754C447.826 250.67 449.077 250.321 450.217 249.727C451.356 249.133 452.359 248.309 453.16 247.306C453.961 246.304 454.543 245.145 454.869 243.905C455.039 243.163 455.166 242.411 455.248 241.654C455.303 242.425 455.234 243.2 455.045 243.949C454.563 246.046 453.366 247.911 451.658 249.226C450.487 250.132 449.118 250.75 447.662 251.029C445.987 251.348 444.257 251.214 442.651 250.642C441.779 250.342 440.96 249.905 440.225 249.349C439.445 248.787 438.76 248.104 438.196 247.326C436.982 245.696 436.326 243.72 436.326 241.689C436.326 239.659 436.982 237.682 438.196 236.052C438.763 235.276 439.447 234.594 440.225 234.029C440.964 233.481 441.782 233.048 442.651 232.745C444.256 232.169 445.987 232.035 447.662 232.358C449.441 232.699 451.083 233.544 452.393 234.792C453.703 236.04 454.623 237.638 455.045 239.394C455.222 240.133 455.281 240.896 455.222 241.654Z" fill="#263238"/>
<path d="M452.725 243.05C453.486 239.298 451.052 235.642 447.289 234.884C443.526 234.126 439.859 236.552 439.098 240.303C438.337 244.055 440.771 247.711 444.534 248.469C448.297 249.227 451.964 246.801 452.725 243.05Z" fill="#455A64"/>
<path d="M372.234 465.189H418.194L396.767 281.089L372.234 465.189Z" fill="#E0E0E0"/>
<path d="M146.083 281.089L116.16 467.362L371.498 470.677L396.763 281.089H146.083Z" fill="#FAFAFA"/>
<path d="M385.395 366.42H132.377L137.882 332.122H389.964L385.395 366.42Z" fill="#EBEBEB"/>
<path d="M385.413 366.446H132.352L137.865 332.148H389.992L385.413 366.446ZM132.404 366.402H385.378L389.939 332.104H137.909L132.404 366.402Z" fill="#263238"/>
<path d="M146.083 281.089L137.879 332.122H389.961L396.763 281.089H146.083Z" fill="#FF58B3"/>
<path d="M146.12 281.089L396.8 280.877H397.038V281.115C389.654 336.616 381.274 399.557 372.417 466.033V466.236H369.347L116.374 466.165H116.127V465.945L146.12 281.089C145.873 282.619 134.476 354.038 116.594 466.033L116.409 465.813H369.286H372.153L371.932 466.007C380.798 399.531 389.196 336.598 396.632 281.097L396.835 281.326L146.12 281.089Z" fill="#263238"/>
<path d="M389.961 332.122C389.961 332.245 333.504 332.35 263.929 332.35C194.354 332.35 137.879 332.245 137.879 332.122C137.879 331.999 194.336 331.893 263.929 331.893C333.522 331.893 389.961 331.99 389.961 332.122Z" fill="#263238"/>
<path d="M385.395 366.42C385.395 366.552 328.638 366.649 258.648 366.649C188.659 366.649 131.893 366.552 131.893 366.42C131.893 366.288 188.632 366.191 258.648 366.191C328.664 366.191 385.395 366.297 385.395 366.42Z" fill="#263238"/>
<path d="M380.242 397.983C380.242 398.114 323.494 398.211 253.504 398.211C183.514 398.211 126.713 398.114 126.713 397.983C126.713 397.851 183.453 397.754 253.469 397.754C323.485 397.754 380.242 397.859 380.242 397.983Z" fill="#263238"/>
<path d="M375.1 429.546C375.1 429.669 318.343 429.774 248.353 429.774C178.364 429.774 121.598 429.669 121.598 429.546C121.598 429.422 178.337 429.317 248.353 429.317C318.37 429.317 375.1 429.422 375.1 429.546Z" fill="#263238"/>
<path d="M152.004 466.288C151.881 466.288 156.512 436.212 162.361 399.17C168.209 362.128 173.035 332.095 173.158 332.122C173.282 332.148 168.65 362.181 162.811 399.24C156.971 436.3 152.137 466.306 152.004 466.288Z" fill="#263238"/>
<path d="M191.022 466.288C190.89 466.288 195.53 436.212 201.37 399.17C207.21 362.128 212.044 332.096 212.176 332.122C212.309 332.148 207.668 362.181 201.82 399.24C195.971 436.3 191.111 466.306 191.022 466.288Z" fill="#263238"/>
<path d="M227.276 464.943C227.152 464.943 231.74 435.174 237.518 398.502C243.296 361.829 248.103 332.096 248.218 332.122C248.333 332.148 243.754 361.882 237.976 398.572C232.198 435.262 227.391 464.96 227.276 464.943Z" fill="#263238"/>
<path d="M263.137 466.007C263.014 466.007 267.636 435.992 273.467 399.029C279.298 362.067 284.123 332.096 284.247 332.122C284.37 332.148 279.748 362.12 273.917 399.1C268.086 436.08 263.261 466.025 263.137 466.007Z" fill="#263238"/>
<path d="M299.17 466.007C299.047 466.007 303.669 435.992 309.5 399.029C315.331 362.067 320.157 332.096 320.28 332.122C320.404 332.148 315.79 362.12 309.959 399.1C304.128 436.08 299.303 466.025 299.17 466.007Z" fill="#263238"/>
<path d="M335.182 466.165C335.059 466.165 339.69 436.115 345.53 399.091C351.37 362.067 356.195 332.06 356.327 332.087C356.46 332.113 351.819 362.128 345.98 399.161C340.14 436.194 335.306 466.218 335.182 466.165Z" fill="#263238"/>
<g opacity="0.2">
<path d="M312.512 334.514C316.852 332.597 319.569 328.094 320.689 323.495C321.81 318.895 321.633 314.094 321.801 309.353C321.969 304.613 322.533 299.732 324.959 295.661C326.397 293.26 328.417 291.263 330.014 288.951C331.61 286.638 332.793 283.823 332.202 281.036L305.049 281.176L312.512 334.514Z" fill="black"/>
</g>
<path d="M199.929 368.961C199.856 369.079 199.767 369.186 199.664 369.278L198.853 370.157C198.138 370.887 197.088 371.916 195.765 373.2C193.119 375.733 189.44 379.18 185.25 382.874C181.06 386.568 177.178 389.786 174.329 392.073C172.9 393.216 171.735 394.131 170.924 394.711L169.98 395.415C169.875 395.506 169.756 395.581 169.627 395.635C169.627 395.635 169.724 395.52 169.918 395.344L170.8 394.571L174.108 391.783C176.914 389.435 180.76 386.172 184.941 382.496C189.122 378.82 192.88 375.408 195.527 372.936L198.711 370.008L199.594 369.225C199.694 369.124 199.806 369.035 199.929 368.961Z" fill="#263238"/>
<path d="M197.894 395.986C197.519 395.66 197.168 395.307 196.844 394.931L194.083 391.993C191.701 389.469 188.508 386.075 184.988 382.32L175.796 372.734L173.008 369.823C172.657 369.477 172.329 369.106 172.029 368.715C172.429 369.009 172.801 369.339 173.141 369.7C173.829 370.351 174.817 371.309 176.025 372.505C178.443 374.897 181.742 378.248 185.314 382.012C188.887 385.776 192.063 389.241 194.321 391.782C195.45 393.049 196.359 394.086 196.968 394.808C197.312 395.171 197.622 395.566 197.894 395.986Z" fill="#263238"/>
<path d="M207.315 377.044C207.315 377.044 207.403 376.815 207.588 376.367C207.881 375.716 208.235 375.095 208.647 374.511C210.269 372.252 212.557 370.552 215.192 369.648C217.08 368.967 219.094 368.703 221.094 368.874C223.475 369.105 225.771 369.884 227.798 371.152C230.139 372.59 232.116 374.546 233.576 376.868C235.265 379.461 236.107 382.512 235.984 385.601C235.883 387.267 235.364 388.882 234.476 390.297C233.545 391.765 232.305 393.013 230.841 393.955C227.725 395.947 224.057 396.905 220.362 396.69C218.426 396.587 216.52 396.174 214.716 395.468C212.839 394.737 211.15 393.595 209.776 392.126C209.093 391.353 208.517 390.493 208.064 389.567C207.633 388.622 207.336 387.621 207.182 386.595C206.889 384.491 207.073 382.348 207.72 380.324C209.069 376.104 211.994 372.562 215.889 370.431C217.908 369.325 220.155 368.695 222.456 368.59C224.758 368.485 227.053 368.907 229.165 369.824C231.354 370.743 233.27 372.205 234.732 374.071C236.195 375.988 237.11 378.264 237.378 380.658C237.684 383.087 237.289 385.551 236.24 387.764C235.702 388.875 234.993 389.895 234.141 390.789C233.273 391.671 232.295 392.436 231.23 393.067C229.081 394.247 226.712 394.972 224.27 395.199C221.828 395.426 219.366 395.15 217.036 394.386C214.742 393.684 212.632 392.483 210.861 390.869C209.104 389.254 207.903 387.127 207.429 384.792C206.932 382.496 207.26 380.099 208.355 378.02C208.911 376.995 209.674 376.097 210.596 375.382C211.504 374.699 212.517 374.167 213.595 373.808C215.714 373.13 217.936 372.833 220.159 372.928C222.323 372.944 224.475 373.239 226.563 373.808C228.627 374.349 230.534 375.367 232.129 376.78C233.658 378.202 234.701 380.066 235.111 382.109C235.516 384.084 235.397 386.13 234.767 388.046C234.143 389.893 233.088 391.565 231.688 392.926C229.031 395.517 225.512 397.044 221.799 397.218C220.062 397.31 218.323 397.059 216.683 396.479C215.108 395.916 213.693 394.984 212.555 393.762C211.477 392.595 210.662 391.213 210.164 389.708C209.673 388.296 209.454 386.804 209.52 385.311C209.646 382.546 210.752 379.915 212.643 377.888C214.259 376.125 216.304 374.808 218.58 374.063C220.49 373.442 222.514 373.25 224.508 373.5C227.263 373.841 229.88 374.893 232.103 376.551C232.68 376.974 233.225 377.439 233.735 377.941C234.079 378.284 234.247 378.469 234.247 378.469C234.247 378.469 234.052 378.301 233.708 377.976C233.184 377.491 232.63 377.039 232.05 376.622C229.824 375.012 227.221 373.998 224.49 373.676C222.336 373.427 220.155 373.697 218.127 374.462C216.1 375.227 214.286 376.465 212.837 378.073C210.995 380.056 209.923 382.628 209.811 385.328C209.751 386.792 209.97 388.254 210.455 389.637C210.947 391.098 211.743 392.438 212.793 393.568C213.898 394.753 215.271 395.657 216.798 396.207C218.398 396.761 220.09 397 221.782 396.91C225.405 396.732 228.837 395.233 231.424 392.698C232.775 391.38 233.794 389.762 234.396 387.975C235 386.124 235.11 384.148 234.714 382.241C234.317 380.279 233.314 378.49 231.847 377.123C230.295 375.763 228.447 374.781 226.448 374.256C224.395 373.696 222.278 373.4 220.15 373.377C217.98 373.295 215.812 373.593 213.745 374.256C211.637 374.899 209.852 376.317 208.752 378.222C207.708 380.211 207.396 382.501 207.87 384.695C208.328 386.938 209.486 388.979 211.178 390.526C212.895 392.107 214.944 393.285 217.177 393.973C219.445 394.717 221.842 394.987 224.218 394.766C226.595 394.545 228.901 393.838 230.991 392.689C232.024 392.085 232.97 391.345 233.805 390.49C234.624 389.632 235.306 388.653 235.826 387.588C236.841 385.453 237.223 383.073 236.928 380.729C236.676 378.418 235.801 376.217 234.396 374.362C232.983 372.558 231.131 371.144 229.015 370.255C226.966 369.362 224.738 368.95 222.504 369.051C220.269 369.151 218.088 369.762 216.127 370.835C212.342 372.913 209.5 376.36 208.188 380.465C207.559 382.429 207.375 384.507 207.65 386.551C207.808 387.543 208.105 388.508 208.532 389.418C208.969 390.306 209.52 391.134 210.173 391.88C211.503 393.302 213.137 394.408 214.954 395.116C216.718 395.812 218.582 396.221 220.476 396.33C224.092 396.55 227.686 395.627 230.744 393.692C232.158 392.829 233.349 391.647 234.22 390.242C235.092 388.837 235.621 387.247 235.764 385.601C235.887 382.579 235.071 379.594 233.426 377.053C231.999 374.76 230.061 372.825 227.763 371.398C225.772 370.142 223.517 369.362 221.173 369.12C219.203 368.934 217.216 369.18 215.351 369.841C212.739 370.722 210.461 372.379 208.823 374.59C208.401 375.164 208.034 375.776 207.729 376.42C207.429 376.824 207.315 377.044 207.315 377.044Z" fill="#FF58B3"/>
<path d="M231.212 401.324C231.291 401.421 224.296 407.384 215.58 414.648C206.865 421.912 199.702 427.707 199.649 427.611C199.596 427.514 206.565 421.551 215.28 414.296C223.996 407.041 231.133 401.228 231.212 401.324Z" fill="#263238"/>
<path d="M232.737 426.828C232.322 426.585 231.93 426.305 231.564 425.993L228.459 423.583C225.857 421.525 222.284 418.658 218.35 415.475C214.415 412.291 210.878 409.389 208.328 407.27L205.32 404.737C204.939 404.447 204.585 404.123 204.262 403.77C204.675 404.016 205.067 404.295 205.435 404.605L208.531 407.015C211.134 409.073 214.706 411.939 218.641 415.123C222.575 418.307 226.113 421.209 228.671 423.328L231.67 425.852C232.049 426.151 232.406 426.478 232.737 426.828Z" fill="#263238"/>
<path d="M304.853 401.668C304.923 401.764 298.237 406.874 289.9 413.1C281.564 419.327 274.754 424.243 274.675 424.137C274.595 424.032 281.291 418.931 289.627 412.705C297.963 406.478 304.773 401.562 304.853 401.668Z" fill="#263238"/>
<path d="M307.447 423.302C307.385 423.407 300.275 419.019 291.568 413.487C282.862 407.956 275.884 403.4 275.946 403.286C276.007 403.172 283.118 407.578 291.824 413.1C300.531 418.623 307.553 423.196 307.447 423.302Z" fill="#263238"/>
<path d="M232.36 466.016C232.263 465.928 239.215 458.664 247.877 449.808C256.54 440.952 263.641 433.82 263.756 433.908C263.871 433.996 256.902 441.26 248.239 450.125C239.576 458.989 232.449 466.104 232.36 466.016Z" fill="#FF58B3"/>
<path d="M261.742 466.007C261.742 466.007 261.628 465.91 261.451 465.699L260.71 464.82C260.022 463.94 259.105 462.806 257.984 461.416C255.682 458.549 252.418 454.653 248.634 450.511C244.849 446.369 241.259 442.772 238.612 440.222L235.472 437.144L234.59 436.317C234.488 436.225 234.396 436.121 234.316 436.009C234.316 436.009 234.449 436.08 234.652 436.247L235.534 437.012C236.319 437.68 237.43 438.674 238.789 439.923C241.488 442.42 245.123 445.991 248.925 450.142C252.727 454.293 255.982 458.233 258.187 461.152C259.316 462.612 260.207 463.791 260.834 464.67L261.513 465.637C261.604 465.751 261.682 465.875 261.742 466.007Z" fill="#FF58B3"/>
<path d="M189.531 429.017C189.531 429.017 189.813 450.625 184.344 463.562L151.008 457.898C151.008 457.898 161.047 437.425 158.312 426.045L189.531 429.017Z" fill="#EBEBEB"/>
<path d="M189.523 428.209C189.523 428.209 185.342 454.733 182.784 462.648L149.65 456.087C149.65 456.087 156.469 430.443 156.381 423.302L189.523 428.209Z" fill="#FF58B3"/>
<path d="M159.74 435.192C159.74 435.315 164.663 436.458 170.794 437.742C176.924 439.026 181.909 439.967 181.935 439.853C181.962 439.739 177.013 438.586 170.882 437.303C164.751 436.019 159.767 435.069 159.74 435.192Z" fill="white"/>
<path d="M158.895 440.811C158.895 440.934 163.817 442.069 169.948 443.361C176.079 444.654 181.063 445.586 181.089 445.472C181.116 445.358 176.167 444.206 170.036 442.922C163.905 441.638 158.921 440.662 158.895 440.811Z" fill="white"/>
<path d="M163.764 447.169C164.329 447.414 164.921 447.591 165.528 447.697C166.666 447.97 168.245 448.33 169.983 448.7C171.721 449.069 173.317 449.368 174.473 449.579C175.09 449.734 175.724 449.81 176.361 449.808C175.774 449.561 175.162 449.381 174.535 449.271C173.405 448.99 171.826 448.629 170.08 448.269C168.333 447.908 166.745 447.592 165.598 447.389C164.998 447.243 164.382 447.169 163.764 447.169Z" fill="white"/>
<path d="M347.249 368.346C347.249 368.346 350.663 389.399 347.205 402.828L313.824 402.116C313.824 402.116 320.652 380.675 316.321 369.955L347.249 368.346Z" fill="#EBEBEB"/>
<path d="M347.1 367.555C347.1 367.555 346.879 394.034 345.53 402.116L312.211 400.542C312.211 400.542 315.131 374.511 313.975 367.555H347.1Z" fill="black"/>
<path d="M318.703 379.339C318.703 379.462 323.714 379.567 329.898 379.576C336.081 379.585 341.101 379.497 341.101 379.374C341.101 379.251 336.09 379.145 329.898 379.136C323.705 379.128 318.703 379.215 318.703 379.339Z" fill="white"/>
<path d="M319.021 384.941C319.021 385.064 324.032 385.169 330.216 385.178C336.4 385.187 341.419 385.099 341.419 384.976C341.419 384.853 336.409 384.747 330.216 384.738C324.023 384.73 319.021 384.818 319.021 384.941Z" fill="white"/>
<path d="M324.992 390.103C325.606 390.234 326.234 390.29 326.862 390.27C328.018 390.27 329.615 390.331 331.379 390.34C333.143 390.349 334.731 390.34 335.887 390.279C336.514 390.304 337.142 390.253 337.757 390.129C337.143 389.998 336.514 389.945 335.887 389.971C334.731 389.927 333.143 389.9 331.379 389.892C329.615 389.883 328.018 389.892 326.862 389.953C326.235 389.928 325.607 389.978 324.992 390.103Z" fill="white"/>
<path d="M354.305 307.639C348.078 307.639 341.805 303.743 338.506 297.613C335.299 291.509 334.305 284.488 335.692 277.738C337.518 268.944 343.358 261.732 350.574 259.428C356.705 257.467 367.661 258.549 372.831 267.176C375.293 271.395 376.516 276.219 376.359 281.097C376.336 281.444 376.245 281.782 376.09 282.094C375.936 282.405 375.721 282.683 375.459 282.911C375.197 283.14 374.892 283.315 374.563 283.426C374.233 283.538 373.884 283.583 373.536 283.56C372.834 283.513 372.18 283.191 371.717 282.663C371.253 282.135 371.02 281.445 371.066 280.746C371.114 276.937 370.133 273.185 368.226 269.885C364.238 263.245 355.496 263.377 352.127 264.45C345.952 266.42 342 273.077 340.809 278.802C339.665 284.345 340.479 290.111 343.111 295.124C345.713 299.961 350.98 302.969 355.646 302.257C356.335 302.161 357.034 302.34 357.592 302.754C358.15 303.168 358.522 303.784 358.627 304.47C358.733 305.155 358.563 305.854 358.156 306.416C357.748 306.978 357.135 307.357 356.449 307.472C355.74 307.581 355.023 307.637 354.305 307.639Z" fill="#263238"/>
<path d="M183.453 307.639C177.216 307.639 170.953 303.743 167.653 297.613C164.443 291.51 163.446 284.49 164.83 277.738C166.374 270.316 171.597 261.768 179.827 259.411C183.795 258.339 188.002 258.552 191.842 260.018L189.936 264.942C187.173 263.896 184.152 263.733 181.291 264.476C175.222 266.235 171.27 272.936 170.053 278.802C168.909 284.345 169.723 290.111 172.355 295.125C174.958 299.97 180.233 302.969 184.891 302.257L185.693 307.472C184.952 307.586 184.203 307.642 183.453 307.639Z" fill="#263238"/>
<path d="M352.128 281.229L349.693 294.517H385.517L388.702 281.361L352.128 281.229Z" fill="#FF58B3"/>
<path d="M192.532 305.537C192.534 306.661 192.201 307.761 191.575 308.696C190.95 309.632 190.06 310.361 189.018 310.792C187.977 311.224 186.83 311.337 185.724 311.118C184.618 310.899 183.601 310.358 182.804 309.563C182.006 308.768 181.463 307.754 181.244 306.652C181.024 305.549 181.138 304.406 181.57 303.367C182.003 302.329 182.734 301.442 183.673 300.818C184.611 300.194 185.714 299.863 186.842 299.864C188.351 299.867 189.796 300.465 190.863 301.528C191.93 302.591 192.53 304.033 192.532 305.537Z" fill="#263238"/>
<path d="M363.235 305.537C363.237 306.661 362.904 307.761 362.279 308.696C361.653 309.632 360.763 310.361 359.721 310.792C358.68 311.224 357.533 311.337 356.427 311.118C355.321 310.899 354.305 310.358 353.507 309.563C352.709 308.768 352.167 307.754 351.947 306.652C351.727 305.549 351.841 304.406 352.273 303.367C352.706 302.329 353.438 301.442 354.376 300.818C355.315 300.194 356.418 299.863 357.545 299.864C359.054 299.867 360.5 300.465 361.566 301.528C362.633 302.591 363.233 304.033 363.235 305.537Z" fill="#263238"/>
<path d="M269.226 195.58L259.857 231.004L227.518 234.469V240.185L272.957 241.777L281.496 202.035L269.226 195.58Z" fill="#FFBE9D"/>
<path d="M282.854 242.718C282.854 242.718 232.324 240.317 217.936 251.512C203.549 262.708 210.518 281.088 210.518 281.088L291.834 280.877L299.015 239.781L282.854 242.718Z" fill="#263238"/>
<path d="M291.456 269.831C291.21 269.837 290.965 269.819 290.723 269.778C290.247 269.725 289.55 269.655 288.65 269.541C286.886 269.321 284.24 268.952 281.064 268.415C272.726 267.001 264.478 265.101 256.364 262.725C251.618 261.327 247.128 259.92 242.981 258.891C239.322 257.947 235.578 257.357 231.805 257.132C229.259 256.99 226.704 257.137 224.192 257.572C223.31 257.677 222.63 257.906 222.154 257.985C221.919 258.043 221.68 258.087 221.439 258.117C221.664 258.021 221.897 257.947 222.136 257.897C222.799 257.691 223.474 257.524 224.156 257.396C226.675 256.889 229.247 256.691 231.814 256.807C235.642 256.988 239.442 257.551 243.158 258.486C247.33 259.489 251.829 260.896 256.558 262.294C264.629 264.65 272.817 266.585 281.09 268.09C284.275 268.67 286.86 269.083 288.65 269.365L290.715 269.69C290.965 269.716 291.213 269.764 291.456 269.831Z" fill="#455A64"/>
<path d="M244.49 258.618C243.086 257.464 241.591 256.426 240.018 255.514C238.369 254.745 236.661 254.11 234.91 253.614C235.453 253.567 236.001 253.621 236.524 253.773C237.814 254.049 239.061 254.499 240.229 255.109C241.396 255.723 242.476 256.489 243.44 257.387C243.864 257.729 244.22 258.147 244.49 258.618Z" fill="#455A64"/>
<path d="M288.208 352.216L288.888 373.384L284.618 390.287C284.549 390.576 284.54 390.877 284.592 391.17C284.645 391.463 284.757 391.742 284.923 391.99C285.089 392.237 285.304 392.448 285.555 392.609C285.806 392.77 286.088 392.878 286.382 392.925C286.723 392.987 287.074 392.967 287.406 392.866C287.737 392.765 288.04 392.586 288.288 392.345C291.499 389.214 303.284 377.641 303.134 376.102C302.975 374.343 303.902 353.711 303.902 353.711L288.208 352.216Z" fill="#FF58B3"/>
<g opacity="0.6">
<path d="M286.305 392.96L303.065 374.703V375.583C303.076 376.36 302.806 377.114 302.307 377.711C300.975 379.303 297.19 383.621 288.29 392.362C288.035 392.613 287.722 392.797 287.379 392.899C287.036 393 286.673 393.015 286.322 392.943L286.305 392.96Z" fill="white"/>
</g>
<g opacity="0.6">
<path d="M298.616 367.905C298.347 368.101 298.162 368.391 298.099 368.718C298.035 369.044 298.097 369.382 298.272 369.664C298.458 369.928 298.737 370.111 299.054 370.176C299.37 370.241 299.699 370.184 299.975 370.016C300.251 369.812 300.441 369.511 300.506 369.174C300.572 368.837 300.508 368.488 300.328 368.196C300.108 367.938 299.797 367.775 299.459 367.742C299.122 367.71 298.785 367.809 298.519 368.02" fill="white"/>
</g>
<path d="M291.075 383.656C290.952 383.718 290.458 382.618 289.196 382.029C288.416 381.724 287.582 381.574 286.744 381.589C286.744 381.537 286.991 381.37 287.485 381.29C288.14 381.211 288.803 381.321 289.397 381.606C289.991 381.891 290.491 382.34 290.837 382.9C291.084 383.331 291.119 383.639 291.075 383.656Z" fill="#263238"/>
<path d="M289.585 386.514C288.975 386.182 288.344 385.888 287.697 385.635C287.008 385.514 286.313 385.431 285.615 385.388C285.939 385.18 286.309 385.054 286.693 385.018C287.077 384.983 287.464 385.041 287.821 385.186C289.073 385.52 289.691 386.452 289.585 386.514Z" fill="#263238"/>
<path d="M293.856 379.98C292.955 379.387 292.011 378.861 291.033 378.406C290 378.091 288.944 377.855 287.875 377.702C288.986 377.47 290.141 377.561 291.201 377.965C292.261 378.369 293.183 379.068 293.856 379.98Z" fill="#263238"/>
<path d="M294.189 373.543C294.136 373.674 292.954 373.191 291.428 373.156C289.902 373.12 288.693 373.49 288.64 373.358C289.496 372.888 290.464 372.657 291.44 372.689C292.417 372.722 293.367 373.016 294.189 373.543Z" fill="#263238"/>
<path d="M294.145 367.325C293.216 367.034 292.251 366.871 291.278 366.841C290.313 366.953 289.369 367.199 288.473 367.571C288.473 367.527 288.667 367.255 289.152 366.973C289.801 366.608 290.528 366.4 291.273 366.368C292.018 366.336 292.761 366.48 293.439 366.789C293.924 367.026 294.18 367.272 294.145 367.325Z" fill="#263238"/>
<path d="M291.303 365.654C291.248 365.39 291.248 365.118 291.303 364.854C291.369 364.118 291.582 363.404 291.929 362.752C292.136 362.25 292.505 361.832 292.979 361.565C293.143 361.491 293.325 361.47 293.502 361.503C293.678 361.536 293.841 361.622 293.967 361.749C294.194 362.013 294.316 362.351 294.311 362.699C294.269 363.408 293.983 364.081 293.501 364.603C293.018 365.126 292.37 365.466 291.664 365.566C290.961 365.644 290.249 365.512 289.621 365.186C288.993 364.86 288.476 364.356 288.136 363.737C288.05 363.581 287.999 363.408 287.987 363.23C287.975 363.052 288.002 362.874 288.065 362.708C288.148 362.55 288.276 362.422 288.434 362.338C288.591 362.255 288.77 362.221 288.947 362.242C289.472 362.353 289.958 362.599 290.359 362.954C290.938 363.411 291.433 363.965 291.823 364.59C291.979 364.811 292.093 365.058 292.158 365.32C291.598 364.525 290.923 363.817 290.156 363.218C289.798 362.925 289.374 362.723 288.921 362.629C288.823 362.612 288.722 362.627 288.634 362.671C288.545 362.716 288.472 362.787 288.427 362.875C288.396 362.988 288.387 363.106 288.402 363.222C288.418 363.339 288.456 363.451 288.515 363.552C288.824 364.076 289.278 364.5 289.822 364.775C290.367 365.049 290.978 365.162 291.585 365.1C292.187 365.023 292.744 364.743 293.163 364.306C293.582 363.869 293.838 363.302 293.887 362.699C293.899 362.458 293.824 362.221 293.676 362.031C293.609 361.955 293.52 361.904 293.421 361.883C293.323 361.862 293.22 361.874 293.129 361.916C292.742 362.152 292.434 362.498 292.247 362.91C291.777 363.764 291.458 364.692 291.303 365.654Z" fill="#263238"/>
<path d="M298.97 239.781C298.97 239.781 277.119 280.964 276.819 288.149C276.519 295.334 276.819 361.564 276.819 361.564H310.64C311.523 361.564 316.595 331.725 315.563 324.857C314.531 317.989 310.887 281.07 310.887 281.07H330.348C330.348 281.07 335.685 275.38 335.49 268.16C335.376 264.176 332.765 256.032 330.198 251.714C328.53 248.944 317.848 234.442 317.848 234.442L298.97 239.781Z" fill="#263238"/>
<path d="M297.504 242.568C297.481 242.651 297.448 242.73 297.407 242.806C297.328 242.982 297.222 243.201 297.09 243.474L295.82 246.042C295.246 247.159 294.567 248.513 293.773 250.087L292.503 252.611L291.171 255.487L284.616 269.637C283.372 272.276 282.067 275.099 280.708 277.992L278.653 282.389C277.989 283.91 277.486 285.495 277.153 287.12C276.818 288.75 276.644 290.408 276.633 292.072C276.58 293.716 276.545 295.343 276.518 296.935C276.518 300.136 276.456 303.214 276.465 306.151C276.465 312.026 276.536 317.32 276.598 321.761C276.659 326.202 276.712 329.764 276.756 332.314C276.756 333.528 276.756 334.487 276.756 335.173C276.756 335.48 276.756 335.727 276.756 335.92C276.756 336.114 276.756 336.175 276.756 336.175C276.742 336.091 276.742 336.005 276.756 335.92C276.756 335.727 276.756 335.48 276.756 335.181C276.756 334.487 276.686 333.537 276.633 332.314C276.545 329.834 276.43 326.238 276.333 321.761C276.236 317.285 276.13 312.035 276.104 306.151C276.104 303.214 276.104 300.127 276.104 296.935C276.104 295.334 276.156 293.707 276.218 292.054C276.227 290.364 276.401 288.68 276.739 287.024C277.08 285.368 277.595 283.753 278.274 282.204L280.338 277.807L284.272 269.47L290.959 255.355L292.317 252.488C292.785 251.609 293.2 250.729 293.623 249.982L295.731 245.972C296.305 244.89 296.763 244.046 297.081 243.439C297.231 243.175 297.354 242.964 297.443 242.788C297.531 242.612 297.496 242.56 297.504 242.568Z" fill="#455A64"/>
<path d="M290.431 256.596C289.73 254.921 289.14 253.203 288.667 251.451C288.047 249.745 287.543 248 287.158 246.227C287.981 247.853 288.631 249.559 289.099 251.319C289.723 253.028 290.17 254.796 290.431 256.596Z" fill="#455A64"/>
<path d="M315.634 323.564C315.578 323.415 315.542 323.258 315.528 323.098C315.487 322.741 315.425 322.292 315.343 321.753C315.184 320.513 314.982 318.824 314.726 316.775C314.24 312.519 313.588 306.741 312.864 300.356C312.141 293.972 311.55 288.123 311.188 283.911C311.021 281.853 310.88 280.164 310.774 278.924C310.774 278.37 310.703 277.922 310.677 277.561C310.665 277.403 310.665 277.245 310.677 277.086C310.732 277.236 310.765 277.393 310.774 277.553C310.818 277.913 310.88 278.362 310.95 278.907C311.091 280.147 311.285 281.827 311.515 283.884C311.982 288.141 312.617 293.928 313.279 300.312C313.941 306.697 314.567 312.475 315.043 316.74C315.237 318.798 315.405 320.486 315.52 321.726C315.564 322.272 315.599 322.729 315.625 323.09C315.642 323.247 315.645 323.406 315.634 323.564Z" fill="#455A64"/>
<path d="M307.041 129.482C306.521 125.964 309.546 122.578 313.04 122.165C316.533 121.752 320.053 123.924 321.658 127.099C322.405 128.695 322.814 130.428 322.86 132.19C322.906 133.951 322.587 135.703 321.923 137.335C321.041 139.56 319.409 141.812 317.036 141.988C314.663 142.163 312.846 140.361 311.275 138.698" fill="#263238"/>
<path d="M282.209 146.93C275.152 131.514 291.913 123.766 301.025 126.334C309.6 128.752 313.261 133.009 314.672 138.725C316.218 144.46 315.909 150.535 313.79 156.085C312.678 158.776 310.685 161.502 307.791 161.837" fill="#263238"/>
<path d="M306.497 134.891C307.222 134.966 307.893 135.311 308.376 135.857C308.858 136.403 309.116 137.11 309.099 137.837L307.449 177.077C307.388 181.712 300.604 184.333 295.62 184.227C290.6 184.121 290.433 181.659 290.327 177.253C290.212 169.892 290.212 167.122 290.212 167.166C290.212 167.21 283.861 166.111 282.546 157.853C281.885 153.746 282.096 147.009 282.44 141.504C282.758 136.553 286.048 130.467 291.006 130.951L306.497 134.891Z" fill="#FFBE9D"/>
<path d="M285.686 146.2C285.681 146.477 285.786 146.745 285.977 146.945C286.168 147.146 286.431 147.264 286.709 147.273C286.844 147.284 286.981 147.267 287.109 147.225C287.238 147.182 287.357 147.114 287.459 147.024C287.561 146.935 287.644 146.826 287.703 146.704C287.762 146.582 287.796 146.45 287.803 146.314C287.805 146.038 287.7 145.772 287.509 145.571C287.318 145.371 287.056 145.253 286.78 145.241C286.644 145.231 286.508 145.247 286.379 145.29C286.25 145.333 286.131 145.401 286.029 145.49C285.927 145.579 285.844 145.688 285.785 145.81C285.726 145.932 285.692 146.065 285.686 146.2Z" fill="#263238"/>
<path d="M283.929 145.013C284.062 145.145 284.873 144.556 286.011 144.556C287.149 144.556 287.996 145.127 288.12 144.987C288.243 144.846 288.049 144.679 287.678 144.415C287.183 144.074 286.595 143.893 285.994 143.896C285.4 143.89 284.82 144.079 284.344 144.433C283.991 144.696 283.868 144.951 283.929 145.013Z" fill="#263238"/>
<path d="M296.863 146.2C296.86 146.47 296.961 146.732 297.144 146.931C297.328 147.131 297.581 147.253 297.851 147.273C297.987 147.283 298.123 147.267 298.252 147.224C298.381 147.182 298.5 147.114 298.602 147.024C298.704 146.935 298.787 146.826 298.846 146.704C298.905 146.582 298.939 146.449 298.945 146.314C298.948 146.038 298.842 145.771 298.651 145.571C298.46 145.371 298.199 145.253 297.922 145.241C297.654 145.229 297.393 145.323 297.194 145.503C296.996 145.683 296.877 145.933 296.863 146.2Z" fill="#263238"/>
<path d="M295.203 145.224C295.335 145.356 296.138 144.767 297.276 144.767C298.414 144.767 299.261 145.339 299.384 145.207C299.508 145.075 299.314 144.89 298.943 144.626C298.449 144.284 297.86 144.103 297.258 144.108C296.665 144.107 296.087 144.295 295.609 144.644C295.203 144.908 295.106 145.172 295.203 145.224Z" fill="#263238"/>
<path d="M291.023 153.675C290.421 153.49 289.799 153.378 289.17 153.341C288.879 153.341 288.597 153.253 288.553 153.06C288.525 152.754 288.593 152.447 288.747 152.18C289.02 151.477 289.302 150.738 289.629 149.964C290.428 148.087 291.077 146.149 291.57 144.169C290.614 145.976 289.809 147.859 289.161 149.797L288.332 152.031C288.15 152.383 288.097 152.787 288.182 153.174C288.226 153.276 288.292 153.367 288.376 153.44C288.46 153.514 288.56 153.567 288.667 153.596C288.829 153.639 288.994 153.662 289.161 153.667C289.779 153.746 290.404 153.749 291.023 153.675Z" fill="#263238"/>
<path d="M290.236 167.157C294.153 167.228 298.012 166.208 301.378 164.211C301.378 164.211 298.678 169.892 290.386 169.118L290.236 167.157Z" fill="#EB996E"/>
<path d="M291.506 156.419C291.725 156.148 292.008 155.936 292.331 155.804C292.653 155.672 293.004 155.623 293.35 155.663C293.604 155.684 293.85 155.756 294.075 155.876C294.299 155.995 294.497 156.159 294.656 156.357C294.807 156.547 294.897 156.779 294.913 157.021C294.929 157.263 294.87 157.504 294.744 157.712C294.561 157.917 294.32 158.063 294.052 158.131C293.785 158.198 293.503 158.184 293.244 158.09C292.701 157.899 292.203 157.6 291.78 157.21C291.652 157.12 291.541 157.006 291.453 156.876C291.412 156.813 291.391 156.74 291.391 156.665C291.391 156.59 291.412 156.517 291.453 156.454" fill="#EB996E"/>
<path d="M294.391 154.466C294.206 154.466 294.197 155.689 293.139 156.568C292.08 157.448 290.757 157.307 290.748 157.448C290.739 157.588 291.039 157.685 291.63 157.703C292.359 157.711 293.067 157.465 293.633 157.008C294.17 156.567 294.518 155.938 294.603 155.249C294.612 154.765 294.471 154.458 294.391 154.466Z" fill="#263238"/>
<path d="M294.657 143.228C294.772 143.535 295.919 143.386 297.26 143.553C298.601 143.72 299.686 144.072 299.862 143.799C299.941 143.667 299.747 143.377 299.315 143.069C298.734 142.697 298.071 142.468 297.383 142.401C296.698 142.316 296.001 142.397 295.354 142.638C294.86 142.832 294.613 143.078 294.657 143.228Z" fill="#263238"/>
<path d="M284.353 141.706C284.556 141.97 285.341 141.706 286.294 141.706C287.246 141.706 288.058 141.882 288.225 141.61C288.305 141.478 288.225 141.214 287.828 140.976C287.364 140.672 286.814 140.521 286.258 140.546C285.703 140.557 285.164 140.738 284.714 141.064C284.379 141.319 284.265 141.583 284.353 141.706Z" fill="#263238"/>
<path d="M295.141 128.242C292.329 128.385 289.598 129.232 287.202 130.704C285.858 131.399 284.664 132.35 283.69 133.505C282.715 134.659 281.978 135.994 281.52 137.432C281.404 137.731 281.351 138.051 281.363 138.372C281.375 138.692 281.453 139.007 281.591 139.297C281.853 139.628 282.223 139.857 282.637 139.946C283.051 140.034 283.483 139.975 283.858 139.78C284.606 139.375 285.243 138.792 285.711 138.083C285.897 138.858 286.342 139.547 286.973 140.037C287.604 140.528 288.383 140.789 289.183 140.78C289.982 140.771 290.755 140.491 291.375 139.987C291.994 139.482 292.423 138.783 292.591 138.004C292.655 138.796 293.022 139.534 293.617 140.063C294.211 140.592 294.988 140.872 295.785 140.844C296.58 140.776 297.337 140.477 297.964 139.985C298.591 139.493 299.06 138.829 299.313 138.074C299.508 139.504 300.004 140.877 300.769 142.102C301.161 142.71 301.73 143.183 302.401 143.457C303.072 143.731 303.811 143.792 304.518 143.632C304.222 144.848 304.24 146.119 304.571 147.326C305.012 148.487 306.768 168.353 307.95 167.948C309.132 167.544 309.088 147.282 309.352 146.103C309.939 143.843 310.236 141.517 310.234 139.182C310.313 136.777 309.531 134.422 308.028 132.538C306.525 130.655 304.399 129.366 302.03 128.902C299.666 128.361 297.239 128.139 294.814 128.242" fill="#263238"/>
<path d="M311.744 164.421C311.744 164.421 311.664 164.474 311.488 164.536C311.24 164.626 310.983 164.688 310.72 164.72C309.494 164.876 308.248 164.68 307.128 164.157C306.008 163.634 305.061 162.805 304.396 161.766C303.493 160.2 303.114 158.389 303.31 156.594C303.443 154.704 303.884 152.98 304.087 151.397C304.286 149.992 304.41 148.577 304.457 147.158C304.457 145.945 304.457 144.968 304.457 144.282C304.419 143.932 304.419 143.578 304.457 143.227C304.562 143.573 304.624 143.93 304.643 144.291C304.739 145.253 304.786 146.218 304.784 147.185C304.782 148.616 304.691 150.047 304.51 151.467C304.316 153.085 303.901 154.818 303.769 156.638C303.581 158.342 303.926 160.063 304.757 161.563C305.482 162.758 306.597 163.668 307.915 164.14C308.801 164.477 309.748 164.621 310.694 164.562C311.373 164.518 311.735 164.377 311.744 164.421Z" fill="#263238"/>
<path d="M292.221 127.178C292.542 127.78 292.691 128.458 292.653 129.139C292.684 130.805 292.051 132.416 290.894 133.619C289.737 134.822 288.149 135.519 286.478 135.559C285.799 135.624 285.116 135.502 284.502 135.207C284.502 135.128 285.261 135.339 286.46 135.207C288.028 135.101 289.501 134.417 290.591 133.289C291.682 132.161 292.313 130.67 292.362 129.104C292.388 127.934 292.141 127.195 292.221 127.178Z" fill="#455A64"/>
<path d="M293.441 136.905C293.485 136.905 293.379 137.467 292.744 138.083C292.322 138.461 291.828 138.75 291.292 138.933C290.755 139.116 290.187 139.189 289.621 139.147C288.512 139.049 287.444 138.683 286.507 138.083C285.793 137.635 285.404 137.292 285.44 137.204C285.867 137.338 286.276 137.524 286.657 137.758C287.588 138.24 288.603 138.539 289.648 138.637C290.684 138.698 291.707 138.386 292.532 137.758C293.176 137.353 293.388 136.869 293.441 136.905Z" fill="#455A64"/>
<path d="M313.421 134.38C313.48 135.137 313.426 135.899 313.262 136.641C313.012 138.477 312.316 140.226 311.233 141.732C310.668 142.48 309.955 143.104 309.139 143.567C308.323 144.029 307.42 144.321 306.487 144.423C305.92 144.474 305.348 144.418 304.802 144.256C304.423 144.142 304.238 144.028 304.246 144.001C304.974 144.131 305.716 144.164 306.452 144.098C308.207 143.814 309.785 142.87 310.863 141.46C311.896 140.003 312.603 138.341 312.936 136.588C313.051 135.843 313.213 135.105 313.421 134.38Z" fill="#455A64"/>
<path d="M314.936 138.382C315.017 138.608 315.062 138.845 315.069 139.085C315.128 139.726 315.143 140.369 315.113 141.011C315.066 143.175 314.29 145.261 312.907 146.93C312.127 147.848 311.112 148.538 309.97 148.926C309.034 149.232 308.034 149.292 307.068 149.102C306.419 148.979 305.803 148.721 305.259 148.346C304.889 148.073 304.73 147.871 304.748 147.853C305.472 148.312 306.277 148.629 307.121 148.786C308.031 148.916 308.959 148.828 309.829 148.53C310.888 148.141 311.83 147.487 312.563 146.631C313.874 145.023 314.653 143.051 314.795 140.985C314.936 139.393 314.857 138.391 314.936 138.382Z" fill="#455A64"/>
<path d="M198.661 244.679L182.65 281.184H204.695L220.397 244.389L198.661 244.679Z" fill="black"/>
<path d="M187.017 205.852L205.075 241.258H262.026L259.724 236.632L243.227 236.14L229.775 206.292C229.366 205.383 228.702 204.611 227.863 204.069C227.024 203.528 226.046 203.24 225.046 203.24H188.622C188.31 203.229 188 203.301 187.725 203.448C187.449 203.596 187.218 203.813 187.055 204.079C186.892 204.345 186.802 204.649 186.795 204.961C186.789 205.272 186.865 205.58 187.017 205.852Z" fill="#E0E0E0"/>
<path d="M215.538 221.726C215.538 222.156 215.41 222.576 215.17 222.933C214.931 223.29 214.591 223.568 214.192 223.733C213.794 223.897 213.356 223.94 212.934 223.856C212.511 223.773 212.123 223.566 211.818 223.262C211.513 222.958 211.306 222.571 211.222 222.15C211.137 221.728 211.181 221.292 211.346 220.895C211.51 220.498 211.79 220.158 212.148 219.92C212.506 219.681 212.928 219.554 213.359 219.554C213.936 219.556 214.489 219.786 214.897 220.192C215.305 220.599 215.535 221.151 215.538 221.726Z" fill="#263238"/>
<path d="M268.096 241.328H198.477V244.714H268.096V241.328Z" fill="#455A64"/>
<path d="M246.651 243.026L267.831 281.219H277.958L280.163 276.849L282.192 272.249L268.096 244.714L246.651 243.026Z" fill="#455A64"/>
<path d="M283.455 177.543C283.455 177.543 271.158 181.861 268.512 195.58L281.497 202.035L283.455 177.543Z" fill="#FF58B3"/>
<path d="M283.454 177.543C283.454 177.543 274.853 196.767 275.179 207.268C275.294 210.917 277.693 220.459 277.693 220.459L282.166 244.081C282.166 244.081 316.402 239.464 317.16 239.464C317.919 239.464 316.014 220.072 316.014 220.072L321.598 182.811C321.598 182.811 319.039 177.736 307.483 175.977C300.558 174.896 283.454 177.543 283.454 177.543Z" fill="#FF58B3"/>
<path d="M280.208 188.703C280.287 188.747 279.387 190.181 278.302 192.661C277.673 194.113 277.143 195.605 276.714 197.128C276.199 198.994 275.825 200.896 275.594 202.818C275.391 204.743 275.329 206.68 275.409 208.613C275.489 210.192 275.675 211.764 275.965 213.318C276.459 215.957 277.023 217.575 276.935 217.601C276.75 217.251 276.602 216.883 276.494 216.502C276.336 216.066 276.201 215.623 276.088 215.174C275.947 214.646 275.762 214.057 275.638 213.415C275.307 211.85 275.089 210.263 274.985 208.666C274.88 206.707 274.93 204.743 275.135 202.792C275.37 200.843 275.762 198.917 276.309 197.031C276.762 195.499 277.331 194.002 278.011 192.555C278.259 191.993 278.536 191.444 278.84 190.91C279.051 190.497 279.284 190.095 279.537 189.706C279.726 189.35 279.951 189.014 280.208 188.703Z" fill="#263238"/>
<path d="M287.617 177.367L288.111 172.09C288.165 171.542 288.42 171.033 288.827 170.66C289.234 170.287 289.764 170.076 290.317 170.068L307.21 169.813C307.722 169.807 308.218 169.995 308.596 170.339C308.974 170.684 309.207 171.159 309.247 171.668L309.68 177.358C308.266 180.346 305.873 182.766 302.896 184.218C297.93 186.619 290.211 186.698 290.211 186.698L287.617 177.367Z" fill="#FF58B3"/>
<path d="M292.036 170.112C292.089 170.112 291.842 170.455 291.736 170.991C291.64 171.768 291.64 172.554 291.736 173.331C291.884 174.463 291.884 175.61 291.736 176.743C291.432 175.64 291.278 174.501 291.277 173.357C291.159 172.543 291.195 171.714 291.383 170.912C291.674 170.306 292.009 170.068 292.036 170.112Z" fill="#263238"/>
<path d="M296.086 176.638C295.791 175.561 295.648 174.448 295.662 173.331C295.597 172.541 295.597 171.747 295.662 170.957C295.751 170.323 296.006 169.998 296.059 170.077C296.112 170.156 295.98 170.446 295.989 171.027C295.998 171.607 296.086 172.434 296.086 173.313C296.234 174.417 296.234 175.535 296.086 176.638Z" fill="#263238"/>
<path d="M301.158 176.497C300.794 175.47 300.571 174.399 300.497 173.313C300.279 172.237 300.211 171.136 300.294 170.042C300.663 171.076 300.885 172.156 300.956 173.251C301.17 174.319 301.239 175.411 301.158 176.497Z" fill="#263238"/>
<path d="M305.532 176.831C305.129 175.701 304.915 174.512 304.897 173.313C304.728 172.118 304.757 170.902 304.985 169.716C305.216 170.875 305.34 172.053 305.356 173.234C305.527 174.425 305.586 175.629 305.532 176.831Z" fill="#263238"/>
<g opacity="0.3">
<path d="M308.885 196.978C308.206 202.897 308.656 213.098 310.756 218.682L320.618 202.439L308.885 196.978Z" fill="black"/>
</g>
<path d="M320.679 181.589L320.732 181.642C323.529 184.568 325.575 188.125 326.696 192.01L328.513 200.268L309.106 203.258C308.037 199.755 307.784 196.056 308.365 192.441C309.317 186.215 320.679 181.589 320.679 181.589Z" fill="#FF58B3"/>
<path d="M328.512 200.268C328.386 200.312 328.256 200.344 328.124 200.364L327.013 200.567L322.858 201.244L308.796 203.372H308.549V203.117C308.505 201.947 308.47 200.734 308.443 199.485C308.399 196.24 308.443 193.135 308.637 190.312C308.772 187.783 309.549 185.329 310.896 183.18C311.801 181.735 313.041 180.529 314.513 179.663C314.909 179.427 315.329 179.233 315.765 179.082C315.911 179.015 316.065 178.971 316.224 178.95C316.224 178.95 315.606 179.188 314.601 179.83C313.201 180.724 312.027 181.927 311.169 183.347C309.891 185.482 309.164 187.899 309.052 190.383C308.849 193.179 308.858 196.275 308.911 199.52C308.911 200.751 308.973 201.974 308.999 203.135L308.743 202.915L322.858 200.936L327.03 200.4L328.159 200.268C328.277 200.252 328.395 200.252 328.512 200.268Z" fill="#263238"/>
<path d="M287.521 188.14C286.533 187.567 285.625 186.866 284.821 186.056C283.915 185.359 283.108 184.542 282.422 183.629C284.316 184.899 286.031 186.417 287.521 188.14Z" fill="#FAFAFA"/>
<path d="M284.902 198.315C284.21 199.023 283.409 199.617 282.529 200.074C281.722 200.657 280.829 201.114 279.883 201.428C281.38 200.145 283.067 199.101 284.885 198.333L284.902 198.315Z" fill="#FAFAFA"/>
<path d="M295.725 200.821C295.568 199.572 295.568 198.307 295.725 197.057C295.731 195.801 295.885 194.549 296.184 193.329C296.338 194.576 296.338 195.837 296.184 197.084C296.181 198.343 296.027 199.598 295.725 200.821Z" fill="#FAFAFA"/>
<path d="M306.249 210.996C305.371 210.175 304.552 209.293 303.797 208.358C302.93 207.534 302.119 206.653 301.371 205.72C302.43 206.332 303.366 207.134 304.132 208.085C305.005 208.923 305.722 209.909 306.249 210.996Z" fill="#FAFAFA"/>
<path d="M307.729 189.723C306.972 190.508 306.108 191.183 305.162 191.728C304.296 192.393 303.343 192.937 302.33 193.346C303.089 192.56 303.957 191.885 304.906 191.341C305.771 190.68 306.72 190.136 307.729 189.723Z" fill="#FAFAFA"/>
<path d="M298.221 182.028C297.383 182.84 296.44 183.535 295.415 184.095C294.476 184.788 293.45 185.356 292.363 185.783C293.201 184.97 294.145 184.272 295.168 183.708C296.111 183.023 297.137 182.459 298.221 182.028Z" fill="#FAFAFA"/>
<path d="M306.795 185.089C306.217 184.238 305.766 183.307 305.454 182.327C305.02 181.396 304.723 180.406 304.572 179.39C305.157 180.241 305.609 181.175 305.913 182.16C306.352 183.087 306.65 184.074 306.795 185.089Z" fill="#FAFAFA"/>
<path d="M318.589 188.949C317.179 187.974 315.954 186.756 314.973 185.353C315.72 185.778 316.386 186.332 316.94 186.988C317.604 187.537 318.163 188.201 318.589 188.949Z" fill="#FAFAFA"/>
<path d="M313.731 197.524C313.451 196.655 313.322 195.745 313.352 194.833C313.22 193.932 313.247 193.015 313.431 192.124C313.836 193.894 313.938 195.72 313.731 197.524Z" fill="#FAFAFA"/>
<path d="M323.531 195.747C322.505 195.91 321.456 195.874 320.444 195.642C319.41 195.557 318.401 195.28 317.471 194.824C318.496 194.834 319.516 194.958 320.514 195.193C321.537 195.27 322.548 195.456 323.531 195.747Z" fill="#FAFAFA"/>
<path d="M284.009 213.468C283.29 212.475 282.697 211.397 282.245 210.258C281.654 209.184 281.198 208.041 280.886 206.855C281.606 207.848 282.198 208.926 282.651 210.065C283.244 211.139 283.7 212.282 284.009 213.468Z" fill="#FAFAFA"/>
<path d="M296.967 227.345C296.138 226.594 295.416 225.733 294.823 224.786C294.114 223.922 293.521 222.97 293.059 221.954C293.889 222.706 294.613 223.567 295.211 224.513C295.923 225.373 296.514 226.326 296.967 227.345Z" fill="#FAFAFA"/>
<path d="M307.679 221.523C306.771 222.114 305.786 222.575 304.751 222.895C303.77 223.357 302.727 223.674 301.654 223.836C303.541 222.782 305.57 222.003 307.679 221.523Z" fill="#FAFAFA"/>
<path d="M281.293 232.763C281.717 231.103 282.43 229.531 283.401 228.119C283.252 228.971 282.953 229.789 282.519 230.538C282.245 231.345 281.83 232.098 281.293 232.763Z" fill="#FAFAFA"/>
<path d="M272.991 193.021C272.482 192.377 272.175 191.597 272.109 190.779C271.901 189.986 271.938 189.149 272.215 188.378C272.397 189.141 272.515 189.917 272.568 190.7C272.772 191.461 272.913 192.237 272.991 193.021Z" fill="#FAFAFA"/>
<path d="M287.731 223.863C286.79 223.616 285.895 223.214 285.085 222.676C284.206 222.278 283.396 221.744 282.686 221.093C283.626 221.344 284.52 221.745 285.332 222.28C286.207 222.684 287.016 223.218 287.731 223.863Z" fill="#FAFAFA"/>
<path d="M296.245 209.212C294.798 210.939 293.118 212.457 291.252 213.723C291.921 212.813 292.711 211.996 293.599 211.296C294.381 210.484 295.272 209.783 296.245 209.212Z" fill="#FAFAFA"/>
<g opacity="0.3">
<path d="M291.031 208.939C291.459 212.005 292.831 214.862 294.957 217.118C297.162 219.264 300.576 220.345 303.443 219.228C303.756 219.142 304.044 218.982 304.282 218.762C304.52 218.542 304.701 218.267 304.81 217.962C304.859 217.587 304.775 217.207 304.574 216.886C304.373 216.565 304.067 216.324 303.708 216.203C302.993 215.974 302.244 215.867 301.494 215.886C299.354 215.747 297.287 215.064 295.486 213.903C293.686 212.743 292.213 211.143 291.208 209.256" fill="black"/>
</g>
<path d="M302.498 216.027C302.498 216.027 302.296 216.098 301.907 216.133C301.362 216.188 300.812 216.188 300.267 216.133C299.456 216.038 298.66 215.849 297.894 215.57C296.003 214.892 294.323 213.73 293.024 212.202C292.497 211.582 292.044 210.903 291.675 210.179C291.415 209.696 291.21 209.186 291.066 208.658C290.995 208.469 290.956 208.27 290.951 208.068C291.039 208.068 291.278 208.86 291.957 210.021C292.354 210.698 292.818 211.334 293.342 211.92C293.99 212.633 294.715 213.273 295.503 213.829C296.299 214.367 297.151 214.818 298.044 215.174C298.776 215.461 299.536 215.673 300.311 215.807C301.643 216.001 302.498 215.939 302.498 216.027Z" fill="#263238"/>
<path d="M253.936 230.204L266.71 228.717L275.717 234.601L310.12 226.369L310.932 202.871L326.22 200.866V229.315C326.134 232.769 324.678 236.048 322.171 238.434C319.664 240.819 316.311 242.116 312.846 242.041L262.423 240.642L260.279 236.368L249.455 236.043L253.936 230.204Z" fill="#FFBE9D"/>
<path d="M309.714 226.325C309.502 226.41 309.284 226.477 309.061 226.528L307.191 227.011L300.284 228.717L277.454 234.232L275.328 234.742H275.24H275.169L266.171 228.841H266.295L253.513 230.318L253.601 230.265L250.213 234.548L249.331 235.674C249.233 235.809 249.121 235.932 248.996 236.043C249.078 235.9 249.169 235.762 249.269 235.63L250.152 234.469L253.433 230.125H253.486L266.251 228.533H266.321H266.374L275.39 234.407H275.231L277.357 233.897L300.214 228.498L307.156 226.906L309.044 226.493C309.263 226.419 309.487 226.364 309.714 226.325Z" fill="#EB996E"/>
<path d="M260.914 233.853C259.266 234.045 257.605 234.11 255.947 234.047H255.065L255.189 234.003C254.191 234.917 253.113 235.741 251.969 236.465C252.878 235.464 253.87 234.541 254.933 233.704L254.986 233.651H255.965C257.617 233.583 259.272 233.651 260.914 233.853Z" fill="#EB996E"/>
<path d="M316.057 230.168C315.4 229.134 314.546 228.238 313.543 227.53C312.479 226.931 311.307 226.548 310.094 226.404C310.451 226.281 310.833 226.251 311.205 226.317C312.106 226.411 312.973 226.712 313.738 227.196C314.503 227.679 315.146 228.333 315.616 229.104C315.854 229.414 316.006 229.781 316.057 230.168Z" fill="#EB996E"/>
</svg>
