<svg width="61" height="68" viewBox="0 0 61 68" fill="none" xmlns="http://www.w3.org/2000/svg">
<path d="M33.6214 34.1895H27.3788C27.0833 34.1895 26.8438 34.4296 26.8438 34.7259V37.2123C26.8438 37.5086 27.0833 37.7487 27.3788 37.7487H33.6214C33.9169 37.7487 34.1565 37.5086 34.1565 37.2123V34.7259C34.1565 34.4296 33.9169 34.1895 33.6214 34.1895ZM33.0863 36.6759H27.9139V35.2623H33.0863V36.6759Z" fill="black"/>
<path d="M33.6214 39.7842H27.3788C27.0833 39.7842 26.8438 40.0244 26.8438 40.3206V42.8071C26.8438 43.1033 27.0833 43.3435 27.3788 43.3435H33.6214C33.9169 43.3435 34.1565 43.1033 34.1565 42.8071V40.3206C34.1565 40.0244 33.9169 39.7842 33.6214 39.7842ZM33.0863 42.2707H27.9139V40.857H33.0863V42.2707Z" fill="black"/>
<path d="M8.66355 34.8105H4.28118C3.98568 34.8105 3.74609 35.0507 3.74609 35.3469V39.0767C3.74609 39.3729 3.98568 39.6131 4.28118 39.6131H8.66355C9.98441 39.6131 11.059 38.5358 11.059 37.2117C11.059 35.8876 9.98441 34.8105 8.66355 34.8105ZM8.66355 38.5403H4.81627V35.8833H8.66355C9.39435 35.8833 9.98883 36.4793 9.98883 37.2117C9.98883 37.9443 9.39435 38.5403 8.66355 38.5403Z" fill="black"/>
<path d="M14.9824 37.212C14.9824 38.5361 16.0569 39.6133 17.3777 39.6133H21.7602C22.0557 39.6133 22.2953 39.3731 22.2953 39.0769V35.3472C22.2953 35.051 22.0557 34.8108 21.7602 34.8108H17.3777C16.0569 34.8108 14.9824 35.8879 14.9824 37.212ZM21.2252 38.5405H17.3777C16.6471 38.5405 16.0526 37.9446 16.0526 37.212C16.0526 36.4795 16.6471 35.8836 17.3777 35.8836H21.2252V38.5405Z" fill="black"/>
<path d="M13.0275 35.2616C14.3517 35.2616 15.4291 34.1816 15.4291 32.8541V28.5091C15.4291 28.2128 15.1895 27.9727 14.894 27.9727H11.1484C10.8529 27.9727 10.6133 28.2128 10.6133 28.5091V32.8541C10.6133 34.1816 11.6907 35.2616 13.0275 35.2616ZM11.6835 29.0455H14.3589V32.8541C14.3589 33.5901 13.7616 34.1888 13.0149 34.1888C12.2807 34.1888 11.6835 33.5901 11.6835 32.8541V29.0455Z" fill="black"/>
<path d="M13.0149 39.1621C11.6907 39.1621 10.6133 40.2421 10.6133 41.5696V45.9147C10.6133 46.2109 10.8529 46.4511 11.1484 46.4511H14.894C15.1895 46.4511 15.4291 46.2109 15.4291 45.9147V41.5696C15.4291 40.2421 14.3517 39.1621 13.0149 39.1621ZM14.3589 45.3784H11.6835V41.5696C11.6835 40.8337 12.2807 40.2349 13.0275 40.2349C13.7616 40.2349 14.3589 40.8337 14.3589 41.5696V45.3784Z" fill="black"/>
<path d="M58.3788 28.1956C58.6274 27.6418 58.6455 27.0245 58.4295 26.4572C58.2123 25.8871 57.7853 25.4363 57.227 25.1875L51.2979 22.5464C50.1511 22.0355 48.7992 22.5498 48.2853 23.6936L47.4749 25.4978C45.7526 25.5654 44.0998 25.9782 42.5531 26.7299C41.4456 26.7299 33.2241 26.7299 31.0358 26.7299V21.0534C31.0358 21.0521 31.0358 21.0511 31.0358 21.0499V18.2967L39.4499 14.7059C39.6473 14.6217 39.7755 14.4274 39.7755 14.2124V9.71402C40.8461 9.4705 41.6483 8.51504 41.6483 7.37466C41.6483 6.05056 40.5681 4.97333 39.2404 4.97333C37.9127 4.97333 36.8325 6.05056 36.8325 7.37466C36.8325 8.51504 37.6347 9.4705 38.7053 9.71402V13.8578L31.0359 17.1309V5.36276C32.1065 5.11923 32.9087 4.16377 32.9087 3.02326C32.9087 1.69916 31.8285 0.62207 30.5008 0.62207C29.1731 0.62207 28.0929 1.69929 28.0929 3.02326C28.0929 4.16377 28.8952 5.1191 29.9657 5.36276V17.942C29.9657 17.943 29.9657 17.9443 29.9657 17.9453V20.2391L22.2962 16.966V9.71402C23.3668 9.4705 24.169 8.51504 24.169 7.37466C24.169 6.05056 23.0888 4.97333 21.7611 4.97333C20.4334 4.97333 19.3532 6.05056 19.3532 7.37466C19.3532 8.51504 20.1554 9.4705 21.226 9.71402V17.3206C21.226 17.5357 21.3542 17.7298 21.5516 17.814L29.9657 21.4048V26.7301C27.7774 26.7301 19.5559 26.7301 18.4484 26.7301C16.9018 25.9783 15.2489 25.5655 13.5266 25.4979L12.7162 23.6938C12.2024 22.55 10.8504 22.0355 9.70357 22.5466L3.77453 25.1876C3.21616 25.4363 2.78916 25.8872 2.57205 26.4573C2.35601 27.0245 2.37407 27.6419 2.62275 28.1958L3.43809 30.0108C1.68113 32.1422 0.625 34.8675 0.625 37.8342C0.625 41.881 2.58984 45.4793 5.61911 47.7326V62.716C5.61924 65.4016 7.81203 67.5866 10.5073 67.5866C12.248 67.5866 13.8702 66.6534 14.7403 65.1512L20.9706 54.3979C22.0332 52.5638 24.015 51.4245 26.1423 51.4245H34.8594C36.9866 51.4245 38.9685 52.5638 40.031 54.3979L46.2613 65.1512C47.1315 66.6534 48.7536 67.5866 50.4944 67.5866C53.1896 67.5866 55.3824 65.4016 55.3824 62.7158V47.7325C58.4117 45.4792 60.3765 41.8809 60.3765 37.834C60.3765 34.8675 59.3204 32.142 57.5634 30.0107L58.3788 28.1956ZM37.9028 7.37466C37.9028 6.6422 38.5029 6.04613 39.2405 6.04613C39.9782 6.04613 40.5783 6.64207 40.5783 7.37466C40.5783 8.10724 39.9782 8.70305 39.2405 8.70305C38.5029 8.70305 37.9028 8.10711 37.9028 7.37466ZM20.4234 7.37466C20.4234 6.6422 21.0235 6.04613 21.7611 6.04613C22.4987 6.04613 23.0988 6.64207 23.0988 7.37466C23.0988 8.10724 22.4987 8.70305 21.7611 8.70305C21.0235 8.70305 20.4234 8.10711 20.4234 7.37466ZM49.2611 24.1343C49.5338 23.5274 50.252 23.2546 50.8634 23.5268L56.7925 26.1679C57.0887 26.2999 57.3149 26.5386 57.4298 26.8399C57.5436 27.1385 57.534 27.4634 57.403 27.7551L56.7787 29.1449C54.6772 27.0339 51.8179 25.6725 48.6458 25.5047L49.2611 24.1343ZM29.1631 3.02326C29.1631 2.29081 29.7632 1.69487 30.5008 1.69487C31.2384 1.69487 31.8385 2.29081 31.8385 3.02326C31.8385 3.75571 31.2384 4.35178 30.5008 4.35178C29.7632 4.35178 29.1631 3.75571 29.1631 3.02326ZM3.57186 26.8399C3.68664 26.5384 3.91298 26.2999 4.20915 26.1679L10.1382 23.5268C10.7493 23.255 11.4676 23.5272 11.7405 24.1343L12.3561 25.5047C9.184 25.6725 6.32475 27.0339 4.2232 29.1449L3.59888 27.7551C3.46765 27.4636 3.45816 27.1385 3.57186 26.8399ZM59.3063 37.834C59.3063 44.0508 54.2255 49.1085 47.9804 49.1085C41.7351 49.1085 36.6543 44.0508 36.6543 37.834C36.6543 35.2454 37.5574 32.7172 39.1975 30.715C39.3849 30.4861 39.3518 30.148 39.1234 29.9601C38.895 29.7721 38.5578 29.8051 38.3702 30.0343C36.5735 32.2277 35.5842 34.9977 35.5842 37.834C35.5842 44.6424 41.1451 50.1813 47.9804 50.1813C50.2922 50.1813 52.4577 49.547 54.3122 48.4449V62.7158C54.3122 64.8101 52.5995 66.5138 50.4944 66.5138C49.1335 66.5138 47.8663 65.7852 47.1867 64.6124L40.9564 53.8591C39.703 51.6956 37.3667 50.3517 34.8594 50.3517H26.1423C23.635 50.3517 21.2986 51.6956 20.0452 53.8591L13.8149 64.6124C13.1355 65.7852 11.8681 66.5138 10.5073 66.5138C8.4021 66.5138 6.68942 64.8101 6.68942 62.7158V48.4449C8.5439 49.547 10.7094 50.1813 13.0212 50.1813C19.8566 50.1813 25.4175 44.6423 25.4175 37.834C25.4175 34.9978 24.4281 32.2277 22.6314 30.0341C22.4437 29.805 22.1065 29.7718 21.8783 29.96C21.6498 30.148 21.6168 30.4859 21.8042 30.7148C23.4442 32.7172 24.3473 35.2454 24.3473 37.834C24.3473 44.0508 19.2665 49.1085 13.0212 49.1085C6.7761 49.1085 1.69531 44.0508 1.69531 37.834C1.69531 31.6173 6.7761 26.5596 13.0212 26.5596C14.8019 26.5596 16.5057 26.959 18.0857 27.7467L18.0885 27.7409H42.9128L42.9157 27.7467C44.4958 26.959 46.1996 26.5596 47.9801 26.5596C54.2255 26.5596 59.3063 31.6173 59.3063 37.834Z" fill="black"/>
<path d="M47.9795 35.2616C49.6514 35.2616 51.0115 33.9056 51.0115 32.2387C51.0115 30.5718 49.6514 29.2158 47.9795 29.2158C46.3075 29.2158 44.9473 30.5718 44.9473 32.2387C44.9473 33.9056 46.3075 35.2616 47.9795 35.2616ZM47.9795 30.2886C49.0613 30.2886 49.9414 31.1633 49.9414 32.2387C49.9414 33.314 49.0613 34.1888 47.9795 34.1888C46.8975 34.1888 46.0174 33.314 46.0174 32.2387C46.0174 31.1633 46.8975 30.2886 47.9795 30.2886Z" fill="black"/>
<path d="M47.9796 39.162C46.3076 39.162 44.9474 40.5181 44.9474 42.1849C44.9474 43.8518 46.3076 45.2078 47.9796 45.2078C49.6515 45.2078 51.0117 43.8518 51.0117 42.1849C51.0117 40.5181 49.6515 39.162 47.9796 39.162ZM47.9796 44.135C46.8976 44.135 46.0176 43.2603 46.0176 42.1849C46.0176 41.1096 46.8976 40.2348 47.9796 40.2348C49.0614 40.2348 49.9415 41.1096 49.9415 42.1849C49.9415 43.2603 49.0614 44.135 47.9796 44.135Z" fill="black"/>
<path d="M52.9736 34.1895C51.3016 34.1895 49.9414 35.5455 49.9414 37.2123C49.9414 38.8792 51.3016 40.2352 52.9736 40.2352C54.6456 40.2352 56.0058 38.8792 56.0058 37.2123C56.0058 35.5455 54.6456 34.1895 52.9736 34.1895ZM52.9736 39.1624C51.8918 39.1624 51.0116 38.2877 51.0116 37.2123C51.0116 36.137 51.8918 35.2622 52.9736 35.2622C54.0554 35.2622 54.9356 36.137 54.9356 37.2123C54.9356 38.2877 54.0554 39.1624 52.9736 39.1624Z" fill="black"/>
<path d="M46.0174 37.2123C46.0174 35.5455 44.6572 34.1895 42.9852 34.1895C41.3133 34.1895 39.9531 35.5455 39.9531 37.2123C39.9531 38.8792 41.3133 40.2352 42.9852 40.2352C44.6572 40.2352 46.0174 38.8792 46.0174 37.2123ZM42.9852 39.1624C41.9034 39.1624 41.0233 38.2877 41.0233 37.2123C41.0233 36.137 41.9034 35.2622 42.9852 35.2622C44.0671 35.2622 44.9472 36.137 44.9472 37.2123C44.9472 38.2877 44.0671 39.1624 42.9852 39.1624Z" fill="black"/>
<path d="M15.5175 21.5863C15.813 21.5863 16.0526 21.3461 16.0526 21.0499V0.536399C16.0526 0.240172 15.813 0 15.5175 0C15.222 0 14.9824 0.240172 14.9824 0.536399V21.0499C14.9824 21.3461 15.222 21.5863 15.5175 21.5863Z" fill="black"/>
<path d="M9.90008 20.343C11.2278 20.343 12.308 19.2658 12.308 17.9417C12.308 16.8012 11.5057 15.8459 10.4352 15.6022V0.536399C10.4352 0.240172 10.1956 0 9.90008 0C9.60458 0 9.36499 0.240172 9.36499 0.536399V15.6024C8.29442 15.8459 7.49219 16.8013 7.49219 17.9419C7.49219 19.2658 8.5724 20.343 9.90008 20.343ZM9.90008 16.6133C10.6377 16.6133 11.2378 17.2093 11.2378 17.9419C11.2378 18.6744 10.6377 19.2704 9.90008 19.2704C9.16246 19.2704 8.56236 18.6744 8.56236 17.9419C8.56236 17.2093 9.16246 16.6133 9.90008 16.6133Z" fill="black"/>
<path d="M4.90423 16.6133C5.19973 16.6133 5.43932 16.3732 5.43932 16.0769V0.536398C5.43932 0.240172 5.19973 0 4.90423 0C4.60873 0 4.36914 0.240172 4.36914 0.536398V16.0769C4.36914 16.3732 4.60873 16.6133 4.90423 16.6133Z" fill="black"/>
<path d="M1.07018 26.6444V0.536398C1.07018 0.240172 0.83059 0 0.535088 0C0.239586 0 0 0.240172 0 0.536398V26.6444C0 26.9406 0.239586 27.1808 0.535088 27.1808C0.83059 27.1808 1.07018 26.9406 1.07018 26.6444Z" fill="black"/>
<path d="M45.4825 21.5863C45.778 21.5863 46.0176 21.3461 46.0176 21.0499V0.536399C46.0176 0.240172 45.778 0 45.4825 0C45.187 0 44.9474 0.240172 44.9474 0.536399V21.0499C44.9474 21.3461 45.187 21.5863 45.4825 21.5863Z" fill="black"/>
<path d="M51.1013 20.343C52.4289 20.343 53.5091 19.2658 53.5091 17.9417C53.5091 16.8012 52.7069 15.8459 51.6363 15.6022V0.536399C51.6363 0.240172 51.3968 0 51.1013 0C50.8058 0 50.5662 0.240172 50.5662 0.536399V15.6024C49.4956 15.8459 48.6934 16.8013 48.6934 17.9419C48.6934 19.2658 49.7736 20.343 51.1013 20.343ZM51.1013 16.6133C51.8389 16.6133 52.439 17.2093 52.439 17.9419C52.439 18.6744 51.8389 19.2704 51.1013 19.2704C50.3636 19.2704 49.7635 18.6744 49.7635 17.9419C49.7635 17.2093 50.3636 16.6133 51.1013 16.6133Z" fill="black"/>
<path d="M56.0937 16.6133C56.3892 16.6133 56.6288 16.3732 56.6288 16.0769V0.536398C56.6288 0.240172 56.3892 0 56.0937 0C55.7982 0 55.5586 0.240172 55.5586 0.536398V16.0769C55.5586 16.3732 55.7982 16.6133 56.0937 16.6133Z" fill="black"/>
<path d="M60.4649 0C60.1694 0 59.9298 0.240172 59.9298 0.536398V26.6444C59.9298 26.9406 60.1694 27.1808 60.4649 27.1808C60.7604 27.1808 61 26.9406 61 26.6444V0.536398C61 0.240172 60.7604 0 60.4649 0Z" fill="black"/>
</svg>
