<svg width="53" height="69" viewBox="0 0 53 69" fill="none" xmlns="http://www.w3.org/2000/svg">
<path d="M51.9298 8.66318L49.9807 8.44713C41.6905 7.52119 33.7542 4.7487 26.8297 0.359522C26.7319 0.297676 26.6167 0.264648 26.4989 0.264648C26.381 0.264648 26.2658 0.297676 26.168 0.359522C19.2434 4.74879 11.3068 7.52128 3.01638 8.44713L1.06732 8.66318C0.923403 8.67923 0.79074 8.7444 0.694461 8.84635C0.598182 8.94829 0.544975 9.07994 0.544922 9.21633V36.4954C0.554621 43.7103 3.08585 50.7219 7.7483 56.449C12.4108 62.1761 18.9455 66.3005 26.3449 68.1864C26.4455 68.2121 26.5517 68.2121 26.6524 68.1864C34.0517 66.3005 40.5864 62.176 45.2489 56.449C49.9113 50.7219 52.4425 43.7103 52.4522 36.4954V9.21633C52.4521 9.07994 52.3989 8.94829 52.3027 8.84635C52.2064 8.7444 52.0737 8.67923 51.9298 8.66318ZM51.2688 36.4954C51.2596 43.4398 48.8323 50.1901 44.3586 55.7124C39.8849 61.2348 33.6113 65.225 26.4986 67.072C19.3859 65.225 13.1124 61.2348 8.63867 55.7124C4.16497 50.1901 1.73767 43.4398 1.72844 36.4954V9.71163L3.1551 9.5531C11.499 8.62084 19.4942 5.85976 26.4986 1.49165C33.5029 5.86008 41.4982 8.62148 49.8421 9.554L51.2688 9.71253V36.4954ZM26.4986 31.3212C27.9845 31.3212 29.437 30.9066 30.6724 30.1297C31.9079 29.3527 32.8708 28.2484 33.4394 26.9565C34.008 25.6645 34.1568 24.2428 33.8669 22.8712C33.5771 21.4996 32.8616 20.2397 31.8109 19.2509C30.7603 18.262 29.4216 17.5886 27.9643 17.3158C26.507 17.043 24.9965 17.183 23.6238 17.7182C22.251 18.2534 21.0777 19.1596 20.2522 20.3224C19.4267 21.4852 18.9862 22.8522 18.9862 24.2507C18.9884 26.1253 19.7806 27.9225 21.189 29.248C22.5974 30.5735 24.5069 31.3191 26.4986 31.3212ZM26.4986 18.294C27.7504 18.2938 28.9741 18.6431 30.015 19.2976C31.0559 19.952 31.8672 20.8823 32.3463 21.9708C32.8254 23.0592 32.9509 24.2569 32.7067 25.4125C32.4626 26.568 31.8598 27.6294 30.9747 28.4625C30.0896 29.2957 28.9619 29.8631 27.7342 30.0929C26.5064 30.3228 25.2339 30.2049 24.0773 29.7541C22.9208 29.3032 21.9323 28.5397 21.2369 27.5601C20.5414 26.5805 20.1702 25.4289 20.1702 24.2507C20.172 22.6715 20.8393 21.1575 22.0257 20.0408C23.2121 18.924 24.8207 18.2958 26.4986 18.294ZM26.4986 33.5489C23.2113 33.5395 20.0179 34.5805 17.4409 36.5014C14.864 38.4223 13.0559 41.1095 12.3127 44.1234C12.2319 44.4473 12.2299 44.7841 12.3069 45.1088C12.3839 45.4335 12.538 45.7376 12.7575 45.9984C12.977 46.2592 13.2563 46.4698 13.5745 46.6147C13.8928 46.7595 14.2417 46.8348 14.5951 46.8348H38.4021C38.7556 46.8348 39.1045 46.7595 39.4227 46.6147C39.7409 46.4698 40.0202 46.2592 40.2397 45.9984C40.4593 45.7376 40.6133 45.4335 40.6903 45.1088C40.7673 44.7841 40.7654 44.4473 40.6845 44.1234C39.9413 41.1095 38.1333 38.4223 35.5563 36.5014C32.9793 34.5805 29.7859 33.5395 26.4986 33.5489ZM39.3127 45.3065C39.2043 45.4361 39.066 45.5408 38.9082 45.6126C38.7504 45.6845 38.5774 45.7216 38.4021 45.7211H14.5951C14.4201 45.7212 14.2472 45.6839 14.0896 45.6122C13.932 45.5405 13.7936 45.4362 13.6849 45.307C13.5762 45.1778 13.4999 45.0272 13.4618 44.8664C13.4237 44.7055 13.4248 44.5387 13.4649 44.3783C14.1562 41.6134 15.8197 39.1494 18.1855 37.3859C20.5513 35.6224 23.4807 34.6628 26.4986 34.6628C29.5165 34.6628 32.446 35.6224 34.8118 37.3859C37.1776 39.1494 38.841 41.6134 39.5323 44.3783C39.573 44.5385 39.5743 44.7054 39.5363 44.8662C39.4982 45.027 39.4218 45.1776 39.3127 45.3065Z" fill="black"/>
</svg>
