<svg width="69" height="68" viewBox="0 0 69 68" fill="none" xmlns="http://www.w3.org/2000/svg">
<path d="M44.7859 33.6646L44.3047 32.5902C55.975 27.4569 65.5398 18.6228 66.0812 17.9662L66.5625 18.3243L66.2016 17.8468L66.8633 17.7871L67.1641 18.3243C67.1641 18.4437 67.0438 18.5631 66.8633 18.8018C65.6 20.2941 60.5469 24.1739 60.4867 24.2336C56.8172 26.9794 51.1625 30.8592 44.7859 33.6646Z" fill="black"/>
<path d="M66.2609 22.9204L65.0578 22.6816L65.8398 18.7421L61.9297 17.9661L62.1703 16.832L67.2836 17.8468L66.2609 22.9204Z" fill="black"/>
<path d="M40.6961 67.4485H30.5898V51.0338L30.9508 50.8548C34.3797 49.1237 37.207 46.4974 39.132 43.1548L39.2523 42.9757L40.7563 42.4385V67.4485H40.6961ZM31.793 66.2548H39.493V44.8261C37.568 47.7509 34.9211 50.1385 31.793 51.7501V66.2548Z" fill="black"/>
<path d="M26.8602 67.4486H16.7539V52.168L17.4758 52.347C20.243 53.0036 23.1305 53.123 26.1383 52.4664L26.8602 52.347V67.4486ZM17.957 66.2548H25.657V53.8393C23.0102 54.3168 20.4836 54.2571 17.957 53.7199V66.2548Z" fill="black"/>
<path d="M54.532 67.4492H44.4258V39.6933L54.532 36.291V67.4492ZM45.6289 66.2554H53.3289V37.9623L45.6289 40.5887V66.2554Z" fill="black"/>
<path d="M68.368 67.4488H58.2617V33.5449L68.368 30.1426V67.4488ZM59.4648 66.255H67.1648V31.7542L59.4648 34.3806V66.255Z" fill="black"/>
<path d="M22.1664 54.1381C10.7367 54.1381 1.47266 44.9458 1.47266 33.6047C1.47266 22.2637 10.7367 13.0714 22.1664 13.0714C33.5961 13.0714 42.8602 22.2637 42.8602 33.6047C42.8602 36.1714 42.3789 38.6187 41.4766 40.9466C38.4688 48.8257 30.7086 54.1381 22.1664 54.1381ZM22.1664 14.2652C11.3984 14.2652 2.67578 22.9202 2.67578 33.6047C2.67578 44.2892 11.3984 52.9443 22.1664 52.9443C30.1672 52.9443 37.5062 47.9303 40.3336 40.5288C41.1758 38.3202 41.5969 35.9923 41.5969 33.6047C41.657 22.9202 32.9344 14.2652 22.1664 14.2652Z" fill="black"/>
<path d="M22.168 35.2161C21.807 35.2161 21.5664 34.9774 21.5664 34.6192V22.5022C21.5664 22.144 21.807 21.9053 22.168 21.9053C22.5289 21.9053 22.7695 22.144 22.7695 22.5022V34.6192C22.7695 34.9774 22.5289 35.2161 22.168 35.2161Z" fill="black"/>
<path d="M29.2648 35.2161H22.2266C21.8656 35.2161 21.625 34.9774 21.625 34.6192C21.625 34.2611 21.8656 34.0223 22.2266 34.0223H29.2648C29.6258 34.0223 29.8664 34.2611 29.8664 34.6192C29.8664 34.9774 29.6258 35.2161 29.2648 35.2161Z" fill="black"/>
<path d="M41.1164 18.8013L37.0859 14.8021L37.507 14.3842C38.65 13.2501 39.793 12.116 40.9961 10.9819L41.2367 10.7432L41.5977 10.8625C42.0789 11.0416 43.0414 11.3401 43.9437 12.2951C44.7258 13.1308 45.0266 14.0261 45.1469 14.4439L45.2672 14.8021L41.1164 18.8013ZM38.7703 14.8021L41.1164 17.13L43.8234 14.4439C43.7031 14.0858 43.4625 13.5486 42.9812 13.0711C42.4398 12.5339 41.8984 12.2354 41.4773 12.116C40.575 13.0114 39.6727 13.9067 38.7703 14.8021Z" fill="black"/>
<path d="M4.66094 18.2047L0.570312 14.1458L0.690625 13.7877C0.810938 13.3699 1.11172 12.4745 1.89375 11.6389C2.79609 10.6838 3.69844 10.3854 4.17969 10.2063L4.54062 10.0869L4.84141 10.3257C6.04453 11.4598 7.1875 12.5939 8.33047 13.728L8.75156 14.1458L4.66094 18.2047ZM1.95391 13.8474L4.66094 16.5334L7.00703 14.2055C6.10469 13.3102 5.20234 12.4148 4.23984 11.5195C3.81875 11.6985 3.27734 11.9373 2.73594 12.4745C2.31484 12.952 2.07422 13.4892 1.95391 13.8474Z" fill="black"/>
<path d="M22.168 49.4229C13.3852 49.4229 6.22656 42.3198 6.22656 33.6051C6.22656 24.8903 13.3852 17.7275 22.2281 17.7275C31.0711 17.7275 38.1695 24.8306 38.1695 33.6051C38.1695 35.5748 37.8086 37.4849 37.1469 39.2756C34.8008 45.364 28.7852 49.4229 22.168 49.4229ZM22.168 18.9213C14.0469 18.9213 7.42969 25.4872 7.42969 33.6051C7.42969 41.7229 14.0469 48.2888 22.2281 48.2888C28.3641 48.2888 33.8984 44.5283 36.0641 38.8578C36.7258 37.1865 37.0266 35.4554 37.0266 33.6051C36.9664 25.4872 30.3492 18.9213 22.168 18.9213Z" fill="black"/>
<path d="M22.7695 10.5049H21.5664V13.6684H22.7695V10.5049Z" fill="black"/>
<path d="M25.4766 7.5199H19.7617V6.923C19.7617 5.37106 19.7617 3.69975 19.8219 2.08812V1.72998L20.1227 1.55091C20.6039 1.31215 21.5063 0.89432 22.7695 0.95401C23.9125 1.0137 24.7547 1.43153 25.1156 1.6106L25.4766 1.78967V7.5199ZM20.9047 6.3261H24.2734V2.56564C23.9125 2.38657 23.3711 2.2075 22.7094 2.14781C21.9273 2.08812 21.3859 2.32688 20.9648 2.50595C20.9047 3.81913 20.9047 5.07261 20.9047 6.3261Z" fill="black"/>
</svg>
