<svg width="70" height="59" viewBox="0 0 70 59" fill="none" xmlns="http://www.w3.org/2000/svg">
<path d="M35.0004 11.1113C37.9838 11.1113 40.4109 8.70826 40.4109 5.7544C40.4109 2.80054 37.9838 0.397461 35.0004 0.397461C32.017 0.397461 29.5898 2.80054 29.5898 5.7544C29.5898 8.70826 32.017 11.1113 35.0004 11.1113ZM35.0004 1.32815C37.4651 1.32815 39.4709 3.3136 39.4709 5.7544C39.4709 8.1952 37.4651 10.1806 35.0004 10.1806C32.5356 10.1806 30.5298 8.1952 30.5298 5.7544C30.5298 3.3136 32.5356 1.32815 35.0004 1.32815Z" fill="black"/>
<path d="M41.6361 12.2196L37.5668 11.4512L37.4364 11.5057C35.8906 12.1483 34.1097 12.1483 32.5638 11.5057L32.4335 11.4512L28.3641 12.2196C26.9532 12.4864 25.9297 13.7111 25.9297 15.1326V26.5808H44.0706V15.1326C44.0706 13.7111 43.0471 12.4864 41.6361 12.2196ZM37.6668 12.4178L37.9944 12.4796L37.0206 13.907L35.5894 12.891C36.2993 12.8344 37.0015 12.6791 37.6668 12.4178ZM34.3964 12.8903L32.943 13.8742L32.2441 12.4346L32.3334 12.4178C32.9943 12.6774 33.6914 12.8328 34.3964 12.8903ZM43.1306 25.6501H26.8697V15.1326C26.8697 14.1574 27.5719 13.3166 28.5404 13.134L31.2893 12.6149L32.5703 15.2539L34.1912 14.1566L34.8643 14.8231L33.7646 22.184L35.0001 23.5757L36.2193 22.1436L35.135 14.8241L35.7883 14.1772L37.2593 15.2212L38.999 12.6693L41.4599 13.134C42.4283 13.3166 43.1306 14.1574 43.1306 15.1326V25.6501Z" fill="black"/>
<path d="M55.2422 35.3237C55.2422 38.2776 57.6693 40.6807 60.6527 40.6807C63.637 40.6807 66.0641 38.2776 66.0641 35.3237C66.0641 32.3699 63.637 29.9668 60.6527 29.9668C57.6693 29.9668 55.2422 32.3699 55.2422 35.3237ZM65.1241 35.3237C65.1241 37.7645 63.1184 39.75 60.6527 39.75C58.1879 39.75 56.1822 37.7645 56.1822 35.3237C56.1822 32.8829 58.1879 30.8975 60.6527 30.8975C63.1184 30.8975 65.1241 32.8829 65.1241 35.3237Z" fill="black"/>
<path d="M67.2885 41.789L63.2182 41.0205L63.0879 41.075C61.5429 41.7176 59.763 41.7181 58.2162 41.075L58.0858 41.0205L54.0156 41.789C52.6056 42.0553 51.582 43.2804 51.582 44.7019V56.1502H69.722V44.7019C69.722 43.2804 68.6985 42.0553 67.2885 41.789ZM68.782 55.2195H52.522V44.7019C52.522 43.7267 53.2243 42.886 54.1918 42.7033L57.9858 41.9871C58.689 42.2631 59.4321 42.4182 60.1816 42.4659V47.4904H61.1216V42.4658C61.8717 42.4181 62.6151 42.263 63.3183 41.9871L67.1122 42.7033C68.0798 42.886 68.782 43.7267 68.782 44.7019V55.2195Z" fill="black"/>
<path d="M29.5898 37.8452C29.5898 40.7991 32.017 43.2026 35.0004 43.2026C37.9838 43.2026 40.4109 40.7991 40.4109 37.8452C40.4109 34.8914 37.9838 32.4883 35.0004 32.4883C32.017 32.4883 29.5898 34.8914 29.5898 37.8452ZM35.0004 33.419C37.4651 33.419 39.4709 35.4044 39.4709 37.8452C39.4709 40.286 37.4651 42.2719 35.0004 42.2719C32.5356 42.2719 30.5298 40.286 30.5298 37.8452C30.5298 35.4044 32.5356 33.419 35.0004 33.419Z" fill="black"/>
<path d="M41.6361 44.3105L37.5668 43.542L37.4364 43.5965C35.8887 44.2391 34.1115 44.2391 32.5638 43.5965L32.4335 43.542L28.3641 44.3105C26.9532 44.5772 25.9297 45.8019 25.9297 47.2234V58.6717H44.0706V47.2234C44.0706 45.8019 43.0471 44.5772 41.6361 44.3105ZM43.1306 57.741H26.8697V47.2234C26.8697 46.2482 27.5719 45.4075 28.5404 45.2248L32.3334 44.5086C33.0367 44.7849 33.7801 44.9402 34.5301 44.988V50.0123H35.4701V44.988C36.2202 44.9402 36.9636 44.7849 37.6668 44.5086L41.4599 45.2248C42.4283 45.4075 43.1306 46.2482 43.1306 47.2234V57.741Z" fill="black"/>
<path d="M9.34697 40.6807C12.3304 40.6807 14.7575 38.2776 14.7575 35.3237C14.7575 32.3699 12.3304 29.9668 9.34697 29.9668C6.36266 29.9668 3.93555 32.3699 3.93555 35.3237C3.93555 38.2776 6.36266 40.6807 9.34697 40.6807ZM9.34697 30.8975C11.8117 30.8975 13.8175 32.8829 13.8175 35.3237C13.8175 37.7645 11.8117 39.75 9.34697 39.75C6.88131 39.75 4.87555 37.7645 4.87555 35.3237C4.87555 32.8829 6.88131 30.8975 9.34697 30.8975Z" fill="black"/>
<path d="M15.9838 41.789L11.9135 41.0205L11.7832 41.075C10.2373 41.7181 8.45736 41.7176 6.9115 41.075L6.78115 41.0205L2.71088 41.789C1.30088 42.0553 0.277344 43.2804 0.277344 44.7019V56.1502H18.4173V44.7019C18.4173 43.2804 17.3938 42.0553 15.9838 41.789ZM17.4773 55.2195H1.21734V44.7019C1.21734 43.7267 1.91959 42.886 2.88713 42.7033L6.68109 41.9871C7.38426 42.263 8.1277 42.4181 8.87779 42.4658V47.4904H9.81779V42.4659C10.5673 42.4182 11.3104 42.2631 12.0136 41.9871L15.8075 42.7033C16.7751 42.886 17.4773 43.7267 17.4773 44.7019V55.2195Z" fill="black"/>
<path d="M18.069 10.0852L21.4909 11.0287C15.2875 14.2274 10.4551 19.4892 7.83524 25.9421C7.73793 26.1807 7.85543 26.4515 8.09594 26.5474C8.15377 26.5701 8.21252 26.581 8.27127 26.581C8.45762 26.581 8.63387 26.4706 8.70731 26.2893C11.2558 20.0126 15.9662 14.901 22.0119 11.8093L20.7652 15.2469L21.589 15.5388L23.362 10.6465L18.3046 9.25085L18.069 10.0852Z" fill="black"/>
<path d="M61.5656 26.0393C61.6427 26.2133 61.8153 26.3165 61.9952 26.3165C62.0585 26.3165 62.1237 26.3038 62.1852 26.277C62.423 26.1729 62.5304 25.898 62.4248 25.663C59.5881 19.3106 54.5728 14.2183 48.2522 11.2283L51.6411 10.1685L51.3767 9.34277L46.3711 10.9093L48.3129 15.739L49.1261 15.4191L47.7622 12.0289C53.9206 14.9178 58.807 19.8632 61.5656 26.0393Z" fill="black"/>
<path d="M35.4634 31.2735V27.5962C35.4634 27.339 35.2532 27.1309 34.9934 27.1309C34.7337 27.1309 34.5234 27.339 34.5234 27.5962V31.2735C34.5234 31.5307 34.7337 31.7389 34.9934 31.7389C35.2532 31.7389 35.4634 31.5307 35.4634 31.2735Z" fill="black"/>
</svg>
