<svg width="75" height="77" viewBox="0 0 75 77" fill="none" xmlns="http://www.w3.org/2000/svg">
<mask id="path-1-inside-1_644_4123" fill="white">
<path fill-rule="evenodd" clip-rule="evenodd" d="M46.8628 28.0839L46.883 29.2062C47.6632 29.1226 48.4494 29.1226 49.2296 29.2062L49.2498 28.0839C48.4538 28.1517 47.6588 28.1517 46.8628 28.0839ZM65.0122 12.1704C65.0122 11.3395 66.2663 11.3395 66.2663 12.1704V16.8094C66.2663 17.6403 65.0122 17.6403 65.0122 16.8094V12.1704ZM67.4576 14.6321C67.4576 13.8011 68.7116 13.8011 68.7116 14.6321V19.271C68.7116 20.1019 67.4576 20.1019 67.4576 19.271V14.6321ZM69.9029 17.3302C69.9029 16.4993 71.157 16.4993 71.157 17.3302V21.9691C71.157 22.8 69.9029 22.8 69.9029 21.9691V17.3302ZM29.8463 12.1704C29.8463 11.3395 31.1004 11.3395 31.1004 12.1704V16.8094C31.1004 17.6403 29.8463 17.6403 29.8463 16.8094V12.1704ZM27.401 14.6321C27.401 13.8011 28.655 13.8011 28.655 14.6321V19.271C28.655 20.1019 27.401 20.1019 27.401 19.271V14.6321ZM24.9558 17.3302C24.9558 16.4993 26.2098 16.4993 26.2098 17.3302V21.9691C26.2098 22.8 24.9558 22.8 24.9558 21.9691V17.3302ZM48.6833 11.9366C50.2755 12.4106 50.8053 14.4424 49.6171 15.6384C49.0537 16.2055 48.2201 16.4313 47.4351 16.2L45.5126 19.2016C45.0664 19.8999 44.0144 19.2177 44.4594 18.521L46.3834 15.5169C45.3349 14.2923 45.9033 12.3908 47.4291 11.9366V7.23153C47.4291 6.40063 48.6832 6.40063 48.6832 7.23153L48.6833 11.9366ZM48.7303 13.3888C48.1315 12.7861 47.1029 13.215 47.1029 14.0673C47.1029 14.9197 48.1315 15.3486 48.7303 14.7458C49.1026 14.3712 49.1026 13.7636 48.7303 13.3888ZM43.8275 5.43528L44.2064 6.09578C44.6192 6.81403 43.5357 7.44391 43.1239 6.72693L42.7447 6.0658C41.702 6.76843 40.8055 7.67097 40.1073 8.72057L40.7641 9.10225C41.4764 9.51676 40.8506 10.6074 40.1371 10.1919L39.4809 9.81056C38.9384 10.9159 38.6006 12.1411 38.5172 13.436H39.274C40.0995 13.436 40.0995 14.6983 39.274 14.6983H38.5172C38.6006 15.9934 38.9384 17.2185 39.4809 18.3239L40.1371 17.9426C40.8508 17.5273 41.4764 18.6177 40.7641 19.0323L40.1073 19.4139C40.8055 20.4639 41.7018 21.3658 42.7447 22.0687L43.1239 21.4076C43.5358 20.6906 44.6192 21.3205 44.2064 22.0387L43.8275 22.6992C44.9262 23.2456 46.1444 23.5858 47.4318 23.6695V22.9075C47.4318 22.0799 48.681 22.0797 48.681 22.9075V23.6695C49.9684 23.5858 51.1864 23.2456 52.2852 22.6992L51.9063 22.0386C51.4936 21.3203 52.5771 20.6904 52.9889 21.4074L53.3681 22.0686C54.4114 21.3655 55.3077 20.4629 56.0062 19.4127L55.3512 19.0321C54.6381 18.6187 55.262 17.53 55.9733 17.9424L56.6315 18.3249C57.1747 17.2187 57.5128 15.9922 57.5959 14.6958H56.8389C56.0167 14.6958 56.0166 13.4386 56.8389 13.4384H57.5959C57.5128 12.1425 57.175 10.9163 56.632 9.8104L55.9758 10.1918C55.2623 10.6071 54.6365 9.5166 55.3488 9.10209L56.0056 8.72041C55.3074 7.67065 54.4111 6.76843 53.3682 6.06564L52.989 6.72677C52.5772 7.44375 51.4938 6.81387 51.9065 6.09562L52.2854 5.43513C51.1873 4.88903 49.9701 4.549 48.6836 4.46505V5.22685C48.6836 6.05775 47.4296 6.05775 47.4296 5.22685V4.46505C46.1426 4.54915 44.9256 4.88918 43.8275 5.43528ZM48.0563 3.18256C42.0841 3.18256 37.2426 8.05597 37.2426 14.0675C37.2426 20.079 42.0841 24.9524 48.0563 24.9524C54.0285 24.9524 58.87 20.079 58.87 14.0675C58.87 8.05597 54.0285 3.18256 48.0563 3.18256ZM50.5195 27.9169L50.4913 29.4168C51.1577 29.569 51.801 29.782 52.415 30.05C52.2799 29.1598 52.2966 28.3084 52.452 27.4245C51.8262 27.6331 51.181 27.7984 50.5195 27.9169ZM53.8783 26.8594C56.104 25.8314 58.0183 24.2316 59.4344 22.2371C63.3503 21.7814 66.8019 24.8751 66.8019 28.8501C66.8019 33.0772 62.9366 36.2206 58.8425 35.3695C58.4709 35.2922 58.1113 35.184 57.7669 35.0475C57.2501 34.0592 56.5887 33.1595 55.8112 32.3769C55.2259 31.7877 54.5748 31.265 53.8698 30.8205C53.7853 30.5444 53.7178 30.2575 53.6684 29.9609C53.4966 28.9304 53.5686 27.854 53.8783 26.8594ZM60.2571 20.9326C64.5722 20.9689 68.0559 24.5015 68.0559 28.8501C68.0559 33.942 63.3467 37.7078 58.4204 36.5643C58.6394 37.2 58.8024 37.8622 58.9032 38.5447C64.7117 39.3192 69.9029 34.7742 69.9029 28.8501C69.9029 23.7845 66.0661 19.5795 61.1051 19.114C60.8648 19.7432 60.5809 20.3507 60.2571 20.9326ZM61.5088 17.8918C66.9796 18.5527 71.157 23.2412 71.157 28.8501C71.157 35.4009 65.5212 40.5224 59.0175 39.8243C59.2155 46.067 54.2479 51.2222 48.0563 51.2222C41.8647 51.2222 36.8971 46.0668 37.0951 39.8243C30.5831 40.5189 24.9556 35.3971 24.9556 28.8499C24.9556 23.2412 29.133 18.5526 34.6038 17.8916C32.0998 8.94951 38.7688 0 48.0563 0C57.3435 0 64.0131 8.94967 61.5088 17.8918ZM35.0075 19.1138C30.0465 19.5793 26.2097 23.7845 26.2097 28.8499C26.2097 34.7737 31.401 39.3194 37.2094 38.5447C37.3102 37.8621 37.4732 37.2 37.6922 36.5643C32.7637 37.7074 28.0567 33.9407 28.0567 28.8501C28.0567 24.5016 31.5404 20.9691 35.8555 20.9326C35.5317 20.3507 35.2478 19.7432 35.0075 19.1138ZM36.678 22.2369C38.0936 24.2313 40.0089 25.8316 42.2343 26.8594C42.544 27.8533 42.6158 28.931 42.4442 29.961C42.3948 30.2577 42.3271 30.5445 42.2428 30.8207C41.5378 31.265 40.8867 31.7879 40.3014 32.3771C39.5239 33.1597 38.8625 34.0594 38.3457 35.0476C38.0013 35.184 37.6417 35.2924 37.2699 35.3697C33.1758 36.2208 29.3106 33.0773 29.3106 28.8502C29.3107 24.8707 32.7599 21.7844 36.678 22.2369ZM43.6606 27.4245C43.8159 28.3084 43.8327 29.16 43.6976 30.05C44.3118 29.782 44.9551 29.5688 45.6213 29.4168L45.5931 27.9169C44.9316 27.7984 44.2864 27.6331 43.6606 27.4245ZM57.0516 5.01273C62.0196 10.0133 62.0195 18.1214 57.0516 23.1219C52.0836 28.1225 44.029 28.1225 39.061 23.1219C34.0931 18.1214 34.0931 10.0135 39.061 5.01273C44.0288 0.0121497 52.0838 0.0121497 57.0516 5.01273ZM48.6833 44.4456C49.1138 44.3323 49.4984 44.1051 49.8036 43.7979C51.3566 42.2347 50.2504 39.5518 48.0565 39.5518C46.9753 39.5518 46.4314 38.23 47.1959 37.4605C47.9604 36.691 49.2735 37.2385 49.2735 38.3268C49.2735 39.1577 50.5275 39.1577 50.5275 38.3268C50.5275 37.1831 49.7561 36.2028 48.6835 35.9203V35.3031C48.6835 34.4722 47.4294 34.4722 47.4294 35.3031V35.9203C46.999 36.0336 46.6145 36.2608 46.3093 36.5681C44.7562 38.1314 45.8625 40.8141 48.0565 40.8141C49.1376 40.8141 49.6815 42.1359 48.917 42.9054C48.1525 43.6749 46.8394 43.1274 46.8394 42.0392C46.8394 41.2083 45.5854 41.2083 45.5854 42.0392C45.5854 43.1828 46.3569 44.1631 47.4294 44.4456V45.0628C47.4294 45.8937 48.6835 45.8937 48.6835 45.0628V44.4456H48.6833ZM48.0563 32.2652C43.7122 32.2652 40.1904 35.8102 40.1904 40.183C40.1904 44.5557 43.7122 48.1007 48.0563 48.1007C52.4004 48.1007 55.9222 44.5557 55.9222 40.183C55.9222 35.8102 52.4004 32.2652 48.0563 32.2652ZM52.7316 35.4766C50.1496 32.8777 45.9628 32.8776 43.3808 35.4766C40.7987 38.0757 40.7987 42.29 43.3808 44.8891C45.9628 47.4882 50.1496 47.4882 52.7316 44.8891C55.3137 42.29 55.3137 38.0757 52.7316 35.4766ZM54.9245 33.2695C58.7174 37.0875 58.7176 43.2784 54.9245 47.0965C51.1313 50.9147 44.9811 50.9145 41.188 47.0965C37.3948 43.2784 37.3948 37.0877 41.188 33.2695C44.9813 29.4514 51.1313 29.4514 54.9245 33.2695ZM9.59922 60.1215C12.2637 60.6459 12.9962 64.1778 10.7224 65.7179C8.54411 67.1934 5.53882 65.4058 5.99121 62.5945C6.25284 60.9685 7.89766 59.7867 9.59922 60.1215ZM10.5184 62.1313C9.62681 60.7975 7.54355 61.1909 7.22675 62.8033C6.91089 64.4113 8.70086 65.5705 10.0267 64.6726C10.8554 64.1112 11.0762 62.9653 10.5184 62.1313ZM8.16539 52.6538C7.9044 52.425 7.50844 52.4526 7.2813 52.7155L0.152442 60.9518L0.15354 60.9529C-0.035349 61.1708 -0.0550999 61.499 0.122973 61.7407L9.0788 73.9236C10.5432 75.9154 12.6799 77 15.1394 77H26.4288V76.9997C26.6037 76.9997 26.7776 76.9263 26.9016 76.7831L30.2774 72.8818C30.5047 72.619 30.4773 72.2205 30.2161 71.9919L27.5184 69.626C28.5271 69.1013 29.7934 68.6135 30.8406 68.7154V68.7151L30.843 68.7154C34.9528 69.101 37.8399 69.8972 40.2214 70.5539C45.094 71.8977 47.9434 72.6834 54.5089 68.607L71.9871 57.7551L71.987 57.7549C71.997 57.7487 72.0069 57.7423 72.0166 57.7353C76.989 54.2386 75.4395 47.0137 69.6365 49.3712L69.6368 49.3721C69.6209 49.3785 69.6054 49.3856 69.5899 49.3934L48.8362 59.8539C48.9271 57.1394 48.1047 54.4507 45.6426 53.195L33.7448 47.1275C31.5946 46.031 29.1464 46.2525 27.2256 47.7149L14.0084 57.7779L8.16539 52.6538ZM14.9732 58.6241L26.513 68.7443C27.8794 67.9738 29.4902 67.3201 30.9582 67.4631C35.1765 67.8591 38.1208 68.6712 40.5497 69.341C45.0925 70.5938 47.7494 71.3265 53.8526 67.5372L71.3172 56.6938C73.0987 55.512 74.2653 53.0047 73.5368 51.2968C73.3793 50.9275 73.1333 50.6262 72.803 50.4317C72.2082 50.0812 71.3112 50.0516 70.1143 50.5352L48.4524 61.4536C48.443 61.4593 48.4336 61.4648 48.424 61.47C46.4547 62.6862 42.3436 61.2888 39.7613 60.4109C38.9944 60.1503 38.3725 59.9387 38.0383 59.8737C37.2279 59.7167 37.4655 58.4796 38.2734 58.636C38.6808 58.7153 39.3422 58.9402 40.1583 59.2176C42.4135 59.9843 45.9422 61.1838 47.5393 60.5144C47.7669 58.0728 47.2799 55.4417 45.0795 54.3196L33.1818 48.252C31.4528 47.3703 29.5278 47.5429 27.9803 48.7211L14.9732 58.6241ZM28.9206 72.529L7.81489 54.0196L1.42732 61.3993L10.0831 73.174C11.3119 74.8457 13.071 75.7377 15.1394 75.7377H26.144L28.9206 72.529ZM60.817 33.1125V33.7298C60.817 34.5607 59.563 34.5607 59.563 33.7298V33.1125C58.4905 32.8301 57.7189 31.8496 57.7189 30.7061C57.7189 29.8752 58.973 29.8752 58.973 30.7061C58.973 31.7945 60.2861 32.3419 61.0506 31.5724C61.8151 30.8028 61.2711 29.4811 60.19 29.4811C57.9961 29.4811 56.8897 26.7984 58.4428 25.235C58.748 24.9278 59.1325 24.7008 59.563 24.5873V23.97C59.563 23.1391 60.817 23.1391 60.817 23.97V24.5873C61.8897 24.8697 62.6611 25.8501 62.6611 26.9937C62.6611 27.8246 61.407 27.8246 61.407 26.9937C61.407 25.9055 60.0939 25.3579 59.3294 26.1275C58.5649 26.897 59.1089 28.2188 60.19 28.2188C62.3839 28.2188 63.4903 30.9015 61.9372 32.4648C61.632 32.772 61.2473 32.9992 60.817 33.1125ZM36.5498 33.1125V33.7298C36.5498 34.5607 35.2957 34.5607 35.2957 33.7298V33.1125C34.2232 32.8301 33.4517 31.8496 33.4517 30.7061C33.4517 29.8752 34.7057 29.8752 34.7057 30.7061C34.7057 31.7945 36.0188 32.3419 36.7833 31.5724C37.5478 30.8028 37.0039 29.4811 35.9228 29.4811C33.7288 29.4811 32.6225 26.7984 34.1756 25.235C34.4808 24.9278 34.8653 24.7008 35.2957 24.5873V23.97C35.2957 23.1391 36.5498 23.1391 36.5498 23.97V24.5873C37.6224 24.8697 38.3938 25.8501 38.3938 26.9937C38.3938 27.8246 37.1398 27.8246 37.1398 26.9937C37.1398 25.9055 35.8267 25.3579 35.0622 26.1275C34.2977 26.897 34.8416 28.2188 35.9228 28.2188C38.1167 28.2188 39.2231 30.9015 37.6699 32.4648C37.3647 32.772 36.9801 32.9992 36.5498 33.1125Z"/>
</mask>
<path fill-rule="evenodd" clip-rule="evenodd" d="M46.8628 28.0839L46.883 29.2062C47.6632 29.1226 48.4494 29.1226 49.2296 29.2062L49.2498 28.0839C48.4538 28.1517 47.6588 28.1517 46.8628 28.0839ZM65.0122 12.1704C65.0122 11.3395 66.2663 11.3395 66.2663 12.1704V16.8094C66.2663 17.6403 65.0122 17.6403 65.0122 16.8094V12.1704ZM67.4576 14.6321C67.4576 13.8011 68.7116 13.8011 68.7116 14.6321V19.271C68.7116 20.1019 67.4576 20.1019 67.4576 19.271V14.6321ZM69.9029 17.3302C69.9029 16.4993 71.157 16.4993 71.157 17.3302V21.9691C71.157 22.8 69.9029 22.8 69.9029 21.9691V17.3302ZM29.8463 12.1704C29.8463 11.3395 31.1004 11.3395 31.1004 12.1704V16.8094C31.1004 17.6403 29.8463 17.6403 29.8463 16.8094V12.1704ZM27.401 14.6321C27.401 13.8011 28.655 13.8011 28.655 14.6321V19.271C28.655 20.1019 27.401 20.1019 27.401 19.271V14.6321ZM24.9558 17.3302C24.9558 16.4993 26.2098 16.4993 26.2098 17.3302V21.9691C26.2098 22.8 24.9558 22.8 24.9558 21.9691V17.3302ZM48.6833 11.9366C50.2755 12.4106 50.8053 14.4424 49.6171 15.6384C49.0537 16.2055 48.2201 16.4313 47.4351 16.2L45.5126 19.2016C45.0664 19.8999 44.0144 19.2177 44.4594 18.521L46.3834 15.5169C45.3349 14.2923 45.9033 12.3908 47.4291 11.9366V7.23153C47.4291 6.40063 48.6832 6.40063 48.6832 7.23153L48.6833 11.9366ZM48.7303 13.3888C48.1315 12.7861 47.1029 13.215 47.1029 14.0673C47.1029 14.9197 48.1315 15.3486 48.7303 14.7458C49.1026 14.3712 49.1026 13.7636 48.7303 13.3888ZM43.8275 5.43528L44.2064 6.09578C44.6192 6.81403 43.5357 7.44391 43.1239 6.72693L42.7447 6.0658C41.702 6.76843 40.8055 7.67097 40.1073 8.72057L40.7641 9.10225C41.4764 9.51676 40.8506 10.6074 40.1371 10.1919L39.4809 9.81056C38.9384 10.9159 38.6006 12.1411 38.5172 13.436H39.274C40.0995 13.436 40.0995 14.6983 39.274 14.6983H38.5172C38.6006 15.9934 38.9384 17.2185 39.4809 18.3239L40.1371 17.9426C40.8508 17.5273 41.4764 18.6177 40.7641 19.0323L40.1073 19.4139C40.8055 20.4639 41.7018 21.3658 42.7447 22.0687L43.1239 21.4076C43.5358 20.6906 44.6192 21.3205 44.2064 22.0387L43.8275 22.6992C44.9262 23.2456 46.1444 23.5858 47.4318 23.6695V22.9075C47.4318 22.0799 48.681 22.0797 48.681 22.9075V23.6695C49.9684 23.5858 51.1864 23.2456 52.2852 22.6992L51.9063 22.0386C51.4936 21.3203 52.5771 20.6904 52.9889 21.4074L53.3681 22.0686C54.4114 21.3655 55.3077 20.4629 56.0062 19.4127L55.3512 19.0321C54.6381 18.6187 55.262 17.53 55.9733 17.9424L56.6315 18.3249C57.1747 17.2187 57.5128 15.9922 57.5959 14.6958H56.8389C56.0167 14.6958 56.0166 13.4386 56.8389 13.4384H57.5959C57.5128 12.1425 57.175 10.9163 56.632 9.8104L55.9758 10.1918C55.2623 10.6071 54.6365 9.5166 55.3488 9.10209L56.0056 8.72041C55.3074 7.67065 54.4111 6.76843 53.3682 6.06564L52.989 6.72677C52.5772 7.44375 51.4938 6.81387 51.9065 6.09562L52.2854 5.43513C51.1873 4.88903 49.9701 4.549 48.6836 4.46505V5.22685C48.6836 6.05775 47.4296 6.05775 47.4296 5.22685V4.46505C46.1426 4.54915 44.9256 4.88918 43.8275 5.43528ZM48.0563 3.18256C42.0841 3.18256 37.2426 8.05597 37.2426 14.0675C37.2426 20.079 42.0841 24.9524 48.0563 24.9524C54.0285 24.9524 58.87 20.079 58.87 14.0675C58.87 8.05597 54.0285 3.18256 48.0563 3.18256ZM50.5195 27.9169L50.4913 29.4168C51.1577 29.569 51.801 29.782 52.415 30.05C52.2799 29.1598 52.2966 28.3084 52.452 27.4245C51.8262 27.6331 51.181 27.7984 50.5195 27.9169ZM53.8783 26.8594C56.104 25.8314 58.0183 24.2316 59.4344 22.2371C63.3503 21.7814 66.8019 24.8751 66.8019 28.8501C66.8019 33.0772 62.9366 36.2206 58.8425 35.3695C58.4709 35.2922 58.1113 35.184 57.7669 35.0475C57.2501 34.0592 56.5887 33.1595 55.8112 32.3769C55.2259 31.7877 54.5748 31.265 53.8698 30.8205C53.7853 30.5444 53.7178 30.2575 53.6684 29.9609C53.4966 28.9304 53.5686 27.854 53.8783 26.8594ZM60.2571 20.9326C64.5722 20.9689 68.0559 24.5015 68.0559 28.8501C68.0559 33.942 63.3467 37.7078 58.4204 36.5643C58.6394 37.2 58.8024 37.8622 58.9032 38.5447C64.7117 39.3192 69.9029 34.7742 69.9029 28.8501C69.9029 23.7845 66.0661 19.5795 61.1051 19.114C60.8648 19.7432 60.5809 20.3507 60.2571 20.9326ZM61.5088 17.8918C66.9796 18.5527 71.157 23.2412 71.157 28.8501C71.157 35.4009 65.5212 40.5224 59.0175 39.8243C59.2155 46.067 54.2479 51.2222 48.0563 51.2222C41.8647 51.2222 36.8971 46.0668 37.0951 39.8243C30.5831 40.5189 24.9556 35.3971 24.9556 28.8499C24.9556 23.2412 29.133 18.5526 34.6038 17.8916C32.0998 8.94951 38.7688 0 48.0563 0C57.3435 0 64.0131 8.94967 61.5088 17.8918ZM35.0075 19.1138C30.0465 19.5793 26.2097 23.7845 26.2097 28.8499C26.2097 34.7737 31.401 39.3194 37.2094 38.5447C37.3102 37.8621 37.4732 37.2 37.6922 36.5643C32.7637 37.7074 28.0567 33.9407 28.0567 28.8501C28.0567 24.5016 31.5404 20.9691 35.8555 20.9326C35.5317 20.3507 35.2478 19.7432 35.0075 19.1138ZM36.678 22.2369C38.0936 24.2313 40.0089 25.8316 42.2343 26.8594C42.544 27.8533 42.6158 28.931 42.4442 29.961C42.3948 30.2577 42.3271 30.5445 42.2428 30.8207C41.5378 31.265 40.8867 31.7879 40.3014 32.3771C39.5239 33.1597 38.8625 34.0594 38.3457 35.0476C38.0013 35.184 37.6417 35.2924 37.2699 35.3697C33.1758 36.2208 29.3106 33.0773 29.3106 28.8502C29.3107 24.8707 32.7599 21.7844 36.678 22.2369ZM43.6606 27.4245C43.8159 28.3084 43.8327 29.16 43.6976 30.05C44.3118 29.782 44.9551 29.5688 45.6213 29.4168L45.5931 27.9169C44.9316 27.7984 44.2864 27.6331 43.6606 27.4245ZM57.0516 5.01273C62.0196 10.0133 62.0195 18.1214 57.0516 23.1219C52.0836 28.1225 44.029 28.1225 39.061 23.1219C34.0931 18.1214 34.0931 10.0135 39.061 5.01273C44.0288 0.0121497 52.0838 0.0121497 57.0516 5.01273ZM48.6833 44.4456C49.1138 44.3323 49.4984 44.1051 49.8036 43.7979C51.3566 42.2347 50.2504 39.5518 48.0565 39.5518C46.9753 39.5518 46.4314 38.23 47.1959 37.4605C47.9604 36.691 49.2735 37.2385 49.2735 38.3268C49.2735 39.1577 50.5275 39.1577 50.5275 38.3268C50.5275 37.1831 49.7561 36.2028 48.6835 35.9203V35.3031C48.6835 34.4722 47.4294 34.4722 47.4294 35.3031V35.9203C46.999 36.0336 46.6145 36.2608 46.3093 36.5681C44.7562 38.1314 45.8625 40.8141 48.0565 40.8141C49.1376 40.8141 49.6815 42.1359 48.917 42.9054C48.1525 43.6749 46.8394 43.1274 46.8394 42.0392C46.8394 41.2083 45.5854 41.2083 45.5854 42.0392C45.5854 43.1828 46.3569 44.1631 47.4294 44.4456V45.0628C47.4294 45.8937 48.6835 45.8937 48.6835 45.0628V44.4456H48.6833ZM48.0563 32.2652C43.7122 32.2652 40.1904 35.8102 40.1904 40.183C40.1904 44.5557 43.7122 48.1007 48.0563 48.1007C52.4004 48.1007 55.9222 44.5557 55.9222 40.183C55.9222 35.8102 52.4004 32.2652 48.0563 32.2652ZM52.7316 35.4766C50.1496 32.8777 45.9628 32.8776 43.3808 35.4766C40.7987 38.0757 40.7987 42.29 43.3808 44.8891C45.9628 47.4882 50.1496 47.4882 52.7316 44.8891C55.3137 42.29 55.3137 38.0757 52.7316 35.4766ZM54.9245 33.2695C58.7174 37.0875 58.7176 43.2784 54.9245 47.0965C51.1313 50.9147 44.9811 50.9145 41.188 47.0965C37.3948 43.2784 37.3948 37.0877 41.188 33.2695C44.9813 29.4514 51.1313 29.4514 54.9245 33.2695ZM9.59922 60.1215C12.2637 60.6459 12.9962 64.1778 10.7224 65.7179C8.54411 67.1934 5.53882 65.4058 5.99121 62.5945C6.25284 60.9685 7.89766 59.7867 9.59922 60.1215ZM10.5184 62.1313C9.62681 60.7975 7.54355 61.1909 7.22675 62.8033C6.91089 64.4113 8.70086 65.5705 10.0267 64.6726C10.8554 64.1112 11.0762 62.9653 10.5184 62.1313ZM8.16539 52.6538C7.9044 52.425 7.50844 52.4526 7.2813 52.7155L0.152442 60.9518L0.15354 60.9529C-0.035349 61.1708 -0.0550999 61.499 0.122973 61.7407L9.0788 73.9236C10.5432 75.9154 12.6799 77 15.1394 77H26.4288V76.9997C26.6037 76.9997 26.7776 76.9263 26.9016 76.7831L30.2774 72.8818C30.5047 72.619 30.4773 72.2205 30.2161 71.9919L27.5184 69.626C28.5271 69.1013 29.7934 68.6135 30.8406 68.7154V68.7151L30.843 68.7154C34.9528 69.101 37.8399 69.8972 40.2214 70.5539C45.094 71.8977 47.9434 72.6834 54.5089 68.607L71.9871 57.7551L71.987 57.7549C71.997 57.7487 72.0069 57.7423 72.0166 57.7353C76.989 54.2386 75.4395 47.0137 69.6365 49.3712L69.6368 49.3721C69.6209 49.3785 69.6054 49.3856 69.5899 49.3934L48.8362 59.8539C48.9271 57.1394 48.1047 54.4507 45.6426 53.195L33.7448 47.1275C31.5946 46.031 29.1464 46.2525 27.2256 47.7149L14.0084 57.7779L8.16539 52.6538ZM14.9732 58.6241L26.513 68.7443C27.8794 67.9738 29.4902 67.3201 30.9582 67.4631C35.1765 67.8591 38.1208 68.6712 40.5497 69.341C45.0925 70.5938 47.7494 71.3265 53.8526 67.5372L71.3172 56.6938C73.0987 55.512 74.2653 53.0047 73.5368 51.2968C73.3793 50.9275 73.1333 50.6262 72.803 50.4317C72.2082 50.0812 71.3112 50.0516 70.1143 50.5352L48.4524 61.4536C48.443 61.4593 48.4336 61.4648 48.424 61.47C46.4547 62.6862 42.3436 61.2888 39.7613 60.4109C38.9944 60.1503 38.3725 59.9387 38.0383 59.8737C37.2279 59.7167 37.4655 58.4796 38.2734 58.636C38.6808 58.7153 39.3422 58.9402 40.1583 59.2176C42.4135 59.9843 45.9422 61.1838 47.5393 60.5144C47.7669 58.0728 47.2799 55.4417 45.0795 54.3196L33.1818 48.252C31.4528 47.3703 29.5278 47.5429 27.9803 48.7211L14.9732 58.6241ZM28.9206 72.529L7.81489 54.0196L1.42732 61.3993L10.0831 73.174C11.3119 74.8457 13.071 75.7377 15.1394 75.7377H26.144L28.9206 72.529ZM60.817 33.1125V33.7298C60.817 34.5607 59.563 34.5607 59.563 33.7298V33.1125C58.4905 32.8301 57.7189 31.8496 57.7189 30.7061C57.7189 29.8752 58.973 29.8752 58.973 30.7061C58.973 31.7945 60.2861 32.3419 61.0506 31.5724C61.8151 30.8028 61.2711 29.4811 60.19 29.4811C57.9961 29.4811 56.8897 26.7984 58.4428 25.235C58.748 24.9278 59.1325 24.7008 59.563 24.5873V23.97C59.563 23.1391 60.817 23.1391 60.817 23.97V24.5873C61.8897 24.8697 62.6611 25.8501 62.6611 26.9937C62.6611 27.8246 61.407 27.8246 61.407 26.9937C61.407 25.9055 60.0939 25.3579 59.3294 26.1275C58.5649 26.897 59.1089 28.2188 60.19 28.2188C62.3839 28.2188 63.4903 30.9015 61.9372 32.4648C61.632 32.772 61.2473 32.9992 60.817 33.1125ZM36.5498 33.1125V33.7298C36.5498 34.5607 35.2957 34.5607 35.2957 33.7298V33.1125C34.2232 32.8301 33.4517 31.8496 33.4517 30.7061C33.4517 29.8752 34.7057 29.8752 34.7057 30.7061C34.7057 31.7945 36.0188 32.3419 36.7833 31.5724C37.5478 30.8028 37.0039 29.4811 35.9228 29.4811C33.7288 29.4811 32.6225 26.7984 34.1756 25.235C34.4808 24.9278 34.8653 24.7008 35.2957 24.5873V23.97C35.2957 23.1391 36.5498 23.1391 36.5498 23.97V24.5873C37.6224 24.8697 38.3938 25.8501 38.3938 26.9937C38.3938 27.8246 37.1398 27.8246 37.1398 26.9937C37.1398 25.9055 35.8267 25.3579 35.0622 26.1275C34.2977 26.897 34.8416 28.2188 35.9228 28.2188C38.1167 28.2188 39.2231 30.9015 37.6699 32.4648C37.3647 32.772 36.9801 32.9992 36.5498 33.1125Z" fill="#373737" stroke="#373737" stroke-width="2" mask="url(#path-1-inside-1_644_4123)"/>
</svg>
